<svg width="17" height="20" viewBox="0 0 17 20" fill="none" xmlns="http://www.w3.org/2000/svg">
<path d="M7.20206 4C7.22346 4.89306 8.57767 16.1496 8.03473 15.9985C6.73112 15.6358 4.16725 14.5686 3.21221 13.6195C2.06753 12.4819 6.10109 15.0722 7.54901 15.7916C9.39055 16.7067 12.9101 12.068 9.70006 12.068C8.38186 12.068 0.0806815 11.3639 4.07957 12.6886" stroke="black" stroke-linecap="round" stroke-linejoin="round"/>
<path d="M2.58115 19C4.35623 18.7033 6.20831 18.6927 7.99817 18.6161C9.50916 18.5514 11.0229 18.4944 12.5351 18.4944C16.2106 18.4944 5.18428 18.4944 1.50885 18.4944C-2.31688 18.4944 16.8094 18.2415 12.9837 18.2415C11.4584 18.2415 9.91333 18.3889 8.3912 18.4756C7.03883 18.5527 2.98759 18.785 4.34125 18.8268C6.70193 18.8996 9.07127 18.7756 11.4287 18.6629C11.6546 18.6521 15.4694 18.7133 15.5 18.2884C15.5348 17.8049 15.7075 17.2899 15.8417 16.8276C15.9346 16.5079 15.6118 17.285 15.5171 17.4082C15.4209 17.5333 14.8718 18.3578 15.0984 17.7453C15.2299 17.3898 15.4231 17.0633 15.6068 16.7387C15.736 16.5103 16.1483 15.8733 15.9443 16.0223C15.8682 16.078 15.7921 16.3012 15.7392 16.3782C15.5188 16.6987 15.2628 16.9845 15.0044 17.2677C14.7963 17.4958 14.5531 17.8852 14.2696 17.9887" stroke="black" stroke-linecap="round" stroke-linejoin="round"/>
<path d="M4.83872 11.9041C6.31679 11.8563 7.78379 11.641 9.24579 11.4151C9.9529 11.3058 10.6603 11.1961 11.3651 11.0708C11.4783 11.0507 11.8 10.9548 11.7066 11.0259C11.5294 11.1609 10.9929 11.2067 10.8364 11.2354C10.08 11.3743 9.31954 11.4875 8.56274 11.6247C7.12258 11.8857 5.61325 12.0736 4.23988 12.6327C3.45599 12.9518 4.83337 12.837 4.96036 12.8323C6.89656 12.7606 8.81519 12.4283 10.7335 12.1636C11.441 12.066 13.5655 11.7912 12.8575 11.8842C11.2817 12.091 9.69313 12.1786 8.11829 12.3981C7.30945 12.5109 4.90192 12.7956 5.71358 12.8822C7.20207 13.0409 8.81902 12.7365 10.2984 12.5778C11.0925 12.4926 13.4639 12.139 12.6751 12.2684C11.71 12.4268 10.7483 12.666 9.79784 12.9021C8.87339 13.1318 7.56007 13.2827 6.76155 13.8752C6.48995 14.0767 8.12729 13.978 8.26332 13.96C8.962 13.8677 9.87784 13.8762 10.5324 13.5708C10.6002 13.5391 10.4216 13.5575 10.4809 13.4311" stroke="black" stroke-linecap="round" stroke-linejoin="round"/>
<path d="M11.1373 11.8544C10.7862 12.7691 10.3981 13.5878 9.92439 14.4198C9.70203 14.8103 9.07482 16.0007 9.34467 15.6541C9.84496 15.0116 10.2469 14.2593 10.6645 13.5437C11.1216 12.7602 11.7002 12.004 12.0501 11.1429C12.1148 10.9836 11.6609 11.817 11.5896 11.9318C10.9795 12.914 10.2414 13.7744 9.5338 14.657C9.32293 14.92 9.08005 15.1851 8.8924 15.475C8.8678 15.513 8.97838 15.4734 9.01163 15.446C9.75663 14.832 10.4085 14.0136 11.0674 13.2823C11.6889 12.5927 12.3915 11.9091 12.934 11.1283C13.3144 10.581 11.946 11.9343 11.4744 12.3723C10.4557 13.3187 9.43899 14.2943 8.5388 15.3976C8.38553 15.5854 7.90503 16.1125 8.09476 15.9784C8.29368 15.8379 8.50164 15.4608 8.63337 15.2669C9.29782 14.2891 9.93018 13.2343 10.389 12.1013C10.6158 11.5411 10.5981 11.3268 10.2657 11.898C9.79646 12.7041 9.36661 13.5495 8.9664 14.4053C8.90066 14.5459 8.60886 15.5427 8.47713 15.6202C8.28335 15.7343 8.6719 14.8836 8.45657 14.8555C8.29357 14.8341 8.13387 15.1575 7.8974 15.0588C7.4604 14.8762 7.03682 14.4828 6.64749 14.1972C6.12105 13.8109 5.57925 13.4297 5.0851 12.9871C4.30403 12.2874 6.70106 14.302 7.54381 14.8942C7.5457 14.8955 8.24833 15.3428 7.99608 15.0781C7.26859 14.3148 6.21098 13.8405 5.31535 13.4517C4.59286 13.1381 2.51588 12.0815 3.10334 12.6676C3.64524 13.2082 4.3926 13.5346 5.0111 13.9358C5.47252 14.2351 5.96048 14.5741 6.47481 14.7296C6.71888 14.8034 6.82965 14.7236 6.64749 14.4779C6.33765 14.0599 5.92257 13.7314 5.50448 13.4808C5.32486 13.3731 5.47307 13.4831 5.58671 13.5098" stroke="black" stroke-linecap="round" stroke-linejoin="round"/>
<path d="M7.74143 14C7.73256 13.0688 7.62104 12.1545 7.55755 11.2293C7.45882 9.79038 7.43021 8.33867 7.37942 6.89471C7.31302 5.00661 7.11506 3.15426 7.01742 1.27676C6.94583 -0.0998081 7.11783 4.03522 7.12085 5.41585C7.12479 7.2163 7.06914 9.01445 7.06914 10.8128C7.06914 12.2499 7.20487 7.94574 7.27312 6.51224C7.34938 4.91052 7.44275 3.30249 7.58628 1.71022C7.81391 -0.814976 7.56653 6.81122 7.7012 9.35096C7.74741 10.2223 7.88649 11.055 7.89657 11.9347C7.90262 12.4625 8 13.005 8 13.524C8 13.6881 7.90334 13.4278 7.89657 13.3966C7.791 12.9098 7.85905 12.3552 7.83911 11.854C7.82302 11.4494 7.80531 10.9468 7.68971 10.5706C7.61002 10.3113 7.52134 11.1036 7.50584 11.1953C7.39648 11.8423 7.2841 12.4891 7.17831 13.1373C7.09447 13.6511 7.15292 13.5669 7.17256 13.0948C7.2023 12.3802 7.25055 11.6682 7.27599 10.9531C7.29086 10.5354 7.37514 10.0306 7.30185 9.61868C7.29521 9.58137 7.24506 10.1296 7.37942 10.3284" stroke="black" stroke-linecap="round" stroke-linejoin="round"/>
<path d="M3.11895 12.9873C2.83679 12.8961 0.935591 12.3842 1.00168 12.1172C1.01372 12.0685 2.44131 12.327 2.54948 12.3531C2.69427 12.388 3.69292 12.6646 3.10435 12.4269C2.77661 12.2944 2.43338 12.1983 2.11142 12.0552C1.84677 11.9376 1.83625 12.0243 2.06032 12.1614C2.58711 12.4837 3.18364 12.7044 3.77604 12.9342C3.9783 13.0126 4.0423 13.0487 3.97316 12.8811" stroke="black" stroke-linecap="round" stroke-linejoin="round"/>
<path d="M6.62061 14C6.9398 14.3973 7.35801 14.6842 7.84428 14.9112C8.20927 15.0815 7.84085 14.9638 7.66947 14.9112C7.1848 14.7625 6.62684 14.6982 6.18359 14.4642C6.07933 14.4092 5.88103 14.3095 6.09618 14.3095" stroke="black" stroke-linecap="round" stroke-linejoin="round"/>
</svg>
