<svg width="19" height="15" viewBox="0 0 19 15" fill="none" xmlns="http://www.w3.org/2000/svg">
<path d="M1 5.17223C4.39791 5.17223 7.90848 4.83418 11.1763 5.71288C13.269 6.27558 16.8652 6.74781 13.5563 5.01776C11.8106 4.10503 11.4698 3.06529 10.4377 1.85108C8.67321 -0.224702 9.94581 2.76019 10.4377 4.32263C11.4938 7.677 7.22579 19.1914 13.1459 11.2739C14.5188 9.43783 16.3884 8.09659 17.8237 6.408C19.1025 4.90365 13.03 3.13949 12.2432 2.70068C11.8735 2.4945 7.73106 1.11021 9.69911 1.85108C11.4691 2.5174 14.5512 4.40939 15.9362 5.71288C16.2942 6.04981 15.1692 5.88388 14.6642 6.25353C13.8553 6.84565 12.5742 7.86765 12.2432 8.80232C12.0512 9.34432 12.3276 11.8459 12.038 10.347C11.7548 8.8809 11.2584 7.21904 10.6018 5.86735C10.0145 4.65809 9.74258 0.914548 9.69911 1.00149C8.56954 3.26052 9.12464 6.33488 9.12464 8.80232C9.12464 11.1097 10.0359 15.8355 8.96051 10.8877C8.30394 7.86678 7.9242 4.56339 6.90883 1.69661" stroke="black" stroke-linecap="round" stroke-linejoin="round"/>
</svg>
