<svg width="15" height="25" viewBox="0 0 15 25" fill="none" xmlns="http://www.w3.org/2000/svg">
<path d="M9.22333 24.409C8.07081 18.5024 10.1395 13.7409 9.44779 7.91114C9.0238 4.3375 9.22333 0.596564 9.22333 6.73272C9.22333 11.2426 8.95019 15.3262 8.26937 19.7515C7.79875 22.8105 8.89089 15.3811 8.99887 14.7572C9.61019 11.2251 10.434 7.81877 10.2334 4.20753C10.0572 1.03641 3.28359 8.10424 2.77007 8.69676C1.75652 9.86625 -0.29171 14.7847 2.15281 11.0536C3.20538 9.44704 8.57291 -0.651175 9.67226 1.23342C11.3355 4.08461 14.4773 10.0402 14.2737 13.2982C14.2291 14.0121 1.96406 14.3848 5.12692 11.2219C6.86931 9.47955 7.58001 6.13982 7.14707 3.75861C6.6183 0.850372 6.21347 7.68852 7.20318 9.48237C11.707 17.6455 4.17773 5.21761 8.21326 5.21761" stroke="black" stroke-linecap="round" stroke-linejoin="round"/>
</svg>
