<svg xmlns="http://www.w3.org/2000/svg" viewBox="0 0 336.07 403.78"><defs><style>.cls-1{fill:#970076;}.cls-1,.cls-2{opacity:0.5;}.cls-2{fill:#ff3756;}.cls-3{font-size:10.11px;fill:#580000;font-family:WarnockPro-Light, Warnock Pro;font-weight:300;}</style></defs><title>Asset 204</title><g id="Layer_2" data-name="Layer 2"><g id="Layer_1-2" data-name="Layer 1"><path class="cls-1" d="M313.6,221.8c20.39-42.6,29.82-92.37,15.8-137.46S274.21,1.11,227,0c-35.88-.82-69.33,18.77-95.83,43-37.9,34.64-66.25,81.22-72.82,132.14S69,280.94,108,314.35c30.19,25.87,88.87,44.5,125.51,21C267.15,313.84,297,256.51,313.6,221.8Z"/><path class="cls-2" d="M31.87,354.7c20.51,28.69,52.82,49.19,88.16,49.08s72.45-23.74,84.63-59.1a99.87,99.87,0,0,0,5-32.81c-.19-48.92-31.43-94.14-75.3-109C96.19,190,43,200.64,13.05,233.53-17.1,266.67,11.74,326.56,31.87,354.7Z"/><text class="cls-3" transform="translate(169.29 246.9)">•</text></g></g></svg>