<svg width="320" height="679" viewBox="0 0 320 679" fill="none" xmlns="http://www.w3.org/2000/svg">
<path opacity="0.5" d="M-22.809 609.937C5.63048 649.727 50.432 678.158 99.435 678.005C148.438 677.853 199.895 645.081 216.784 596.04C221.617 581.365 223.96 565.985 223.717 550.536C223.454 482.689 180.136 419.974 119.305 399.365C66.3781 381.515 -7.37598 396.272 -48.9051 441.887C-90.7116 487.848 -50.7216 570.91 -22.809 609.937Z" fill="#FF3756" fill-opacity="0.3"/>
<path opacity="0.5" d="M444.774 308.719C463.406 245.927 465.466 175.704 436.435 117.004C407.404 58.3029 342.71 15.0405 277.82 23.8128C228.509 30.5121 186.975 64.6361 155.97 103.6C111.625 159.307 82.9605 229.286 85.0674 300.461C87.1743 371.635 122.722 443.047 183.413 480.304C230.395 509.155 314.812 521.878 359.862 481.704C401.237 444.908 429.611 359.879 444.774 308.719Z" fill="#970076" fill-opacity="0.3"/>
</svg>
