<svg xmlns="http://www.w3.org/2000/svg" viewBox="0 0 66.42 146.46"><defs><style>.cls-1{fill:#970076;}.cls-1,.cls-2{opacity:0.5;}.cls-2{fill:#ff4344;}.cls-3{fill:#ff6262;}.cls-4{fill:#fff;}</style></defs><title>icons</title><g id="Layer_2" data-name="Layer 2"><g id="Layer_1-2" data-name="Layer 1"><path class="cls-1" d="M41.36,10.52C41.36,4.71,35.24,0,27.68,0S14,4.71,14,10.52a8.88,8.88,0,0,0,2.5,6.05,14.85,14.85,0,0,1-2.36,3.58.56.56,0,0,0-.1.58.53.53,0,0,0,.48.31,11.67,11.67,0,0,0,5.84-1.64A16.72,16.72,0,0,0,27.68,21C35.24,21,41.36,16.33,41.36,10.52Z"/><path class="cls-2" d="M25.06,19.33c0-5.81,6.13-10.52,13.68-10.52s13.68,4.71,13.68,10.52a9,9,0,0,1-2.5,6.05A14.89,14.89,0,0,0,52.27,29a.53.53,0,0,1-.38.89,11.63,11.63,0,0,1-5.83-1.64,16.77,16.77,0,0,1-7.32,1.64C31.19,29.85,25.06,25.14,25.06,19.33Z"/><path class="cls-3" d="M41.63,127.52C41.63,121.71,35.51,117,28,117s-13.68,4.71-13.68,10.52a9,9,0,0,0,2.5,6,14.89,14.89,0,0,1-2.35,3.58.5.5,0,0,0-.1.57.52.52,0,0,0,.48.32,11.6,11.6,0,0,0,5.83-1.64A16.8,16.8,0,0,0,28,138C35.51,138,41.63,133.33,41.63,127.52Zm8,14.47a8.93,8.93,0,0,0,2.5-6.05c0-4.4-3.52-8.17-8.5-9.74a9.55,9.55,0,0,1,.08,1.32c0,7-7.08,12.62-15.78,12.62a20.22,20.22,0,0,1-2.08-.12c2.07,3.78,6.93,6.44,12.6,6.44a16.63,16.63,0,0,0,7.32-1.65,11.56,11.56,0,0,0,5.83,1.65.5.5,0,0,0,.48-.32.52.52,0,0,0-.09-.57A14.53,14.53,0,0,1,49.65,142Z"/><path class="cls-1" d="M43.13,53.27c-9.17-4-20.24-4.7-29.27-.44S-1.43,66.81.28,76.19a23.35,23.35,0,0,0,3.21,8c6.73,10.94,20.91,17.32,34.17,15.4C49.2,97.86,61.36,89.1,64.52,78.15S52.13,57.16,43.13,53.27Z"/><path class="cls-2" d="M47.14,49.94c-8.11-3.78-17.91-4.47-25.89-.42S7.73,62.84,9.25,71.77a22.81,22.81,0,0,0,2.83,7.57A30.31,30.31,0,0,0,42.3,94c10.2-1.6,21-9.94,23.75-20.37S55.1,53.65,47.14,49.94Z"/><path class="cls-4" d="M39.93,69.12c0-5.82-6.12-10.52-13.67-10.52S12.58,63.3,12.58,69.12a9,9,0,0,0,2.5,6,14.76,14.76,0,0,1-2.36,3.58.52.52,0,0,0-.09.57.5.5,0,0,0,.48.32A11.66,11.66,0,0,0,18.94,78a16.77,16.77,0,0,0,7.32,1.64C33.81,79.64,39.93,74.93,39.93,69.12Zm8,14.46a8.91,8.91,0,0,0,2.5-6c0-4.39-3.52-8.16-8.51-9.73A9.54,9.54,0,0,1,42,69.12c0,7-7.08,12.62-15.78,12.62a20.58,20.58,0,0,1-2.09-.12c2.07,3.78,6.94,6.44,12.61,6.44a16.66,16.66,0,0,0,7.32-1.65,11.5,11.5,0,0,0,5.83,1.65.53.53,0,0,0,.38-.89A14.58,14.58,0,0,1,48,83.58Z"/></g></g></svg>