<?xml version="1.0" encoding="utf-8"?>
<!-- Generator: Adobe Illustrator 23.0.4, SVG Export Plug-In . SVG Version: 6.00 Build 0)  -->
<svg version="1.1" id="Layer_1" xmlns="http://www.w3.org/2000/svg" xmlns:xlink="http://www.w3.org/1999/xlink" x="0px" y="0px"
	 viewBox="0 0 227 286" style="enable-background:new 0 0 227 286;" xml:space="preserve">
<style type="text/css">
	.st0{fill:#2A2D7D;}
	.st1{fill:#580000;}
	.st2{fill:#FF3351;}
	.st3{fill:#FF6262;}
	.st4{opacity:0.5;fill:#FF4344;enable-background:new    ;}
	.st5{fill:#FFD1D1;}
	.st6{fill:#BF7FB9;}
	.st7{clip-path:url(#SVGID_2_);}
	.st8{opacity:0.5;fill:#970076;enable-background:new    ;}
	.st9{fill:#FFFFFF;}
</style>
<path d="M62.5,10.7h-1.8L60,13.5h1.9v0.8h-2.1l-0.7,2.9h-0.8l0.7-2.9h-2.6l-0.7,2.9h-0.8l0.7-2.9H54v-0.8h1.8l0.7-2.7h-1.8V10h2
	l0.7-2.8h0.8L57.4,10H60l0.7-2.8h0.8L60.8,10h1.6V10.7z M59.2,13.5l0.7-2.7h-2.7l-0.7,2.7H59.2z M66.9,12.8c0.5,0,0.9,0.1,1.3,0.2
	c0.4,0.1,0.7,0.4,1,0.6c0.3,0.3,0.5,0.6,0.7,1c0.2,0.4,0.3,0.8,0.3,1.3c0,0.5-0.1,0.9-0.3,1.3c-0.2,0.4-0.4,0.8-0.7,1
	c-0.3,0.3-0.7,0.5-1.1,0.7c-0.4,0.2-0.9,0.2-1.3,0.2c-0.4,0-0.7,0-1-0.1c-0.3-0.1-0.6-0.2-0.9-0.4c-0.3-0.2-0.5-0.4-0.7-0.6
	c-0.2-0.2-0.4-0.5-0.5-0.8l0.6-0.5c0.3,0.5,0.6,0.8,1.1,1.1c0.5,0.3,1,0.4,1.5,0.4c0.3,0,0.7-0.1,1-0.2c0.3-0.1,0.6-0.3,0.8-0.5
	c0.2-0.2,0.4-0.5,0.5-0.8c0.1-0.3,0.2-0.6,0.2-1c0-0.3-0.1-0.7-0.2-0.9c-0.1-0.3-0.3-0.5-0.5-0.7c-0.2-0.2-0.5-0.4-0.8-0.5
	c-0.3-0.1-0.6-0.2-0.9-0.2c-0.4,0-0.9,0.1-1.3,0.3c-0.4,0.2-0.7,0.5-0.9,0.8h-0.9c0-0.1,0-0.2,0.1-0.4c0-0.2,0.1-0.4,0.1-0.7
	c0.1-0.3,0.1-0.6,0.2-0.9c0.1-0.3,0.1-0.7,0.2-1c0.2-0.8,0.3-1.7,0.5-2.6h4.8V10h-4.1l-0.7,3.6c0.2-0.3,0.5-0.5,0.9-0.6
	C66.1,12.9,66.5,12.8,66.9,12.8z M78.3,14.4c0,0.4-0.1,0.8-0.3,1.2c-0.2,0.3-0.4,0.6-0.8,0.9c-0.3,0.3-0.7,0.4-1.1,0.6
	c-0.4,0.1-0.9,0.2-1.3,0.2c-0.5,0-1-0.1-1.4-0.2c-0.4-0.2-0.8-0.4-1.1-0.6c-0.3-0.3-0.5-0.6-0.7-0.9s-0.3-0.7-0.3-1.1
	c0-0.3,0.1-0.6,0.2-0.9c0.1-0.3,0.3-0.5,0.5-0.7c0.2-0.2,0.4-0.4,0.6-0.5c0.2-0.2,0.5-0.3,0.7-0.4c-0.2-0.1-0.4-0.2-0.6-0.3
	c-0.2-0.1-0.4-0.3-0.5-0.5c-0.1-0.2-0.3-0.4-0.4-0.6c-0.1-0.2-0.1-0.4-0.1-0.7c0-0.4,0.1-0.8,0.3-1.1c0.2-0.3,0.4-0.6,0.7-0.8
	c0.3-0.2,0.6-0.4,1-0.5c0.4-0.1,0.7-0.2,1.1-0.2c0.4,0,0.7,0.1,1.1,0.2c0.4,0.1,0.7,0.3,1,0.5c0.3,0.2,0.5,0.5,0.7,0.8
	C77.9,9,78,9.3,78,9.7c0,0.2,0,0.5-0.1,0.7c-0.1,0.2-0.2,0.4-0.4,0.6c-0.1,0.2-0.3,0.3-0.5,0.5c-0.2,0.1-0.4,0.2-0.6,0.3
	c0.3,0.1,0.5,0.2,0.8,0.4c0.2,0.2,0.5,0.3,0.6,0.6c0.2,0.2,0.3,0.5,0.4,0.7C78.3,13.8,78.3,14.1,78.3,14.4z M77.4,14.3
	c0-0.3-0.1-0.6-0.2-0.9c-0.1-0.3-0.3-0.5-0.6-0.7c-0.2-0.2-0.5-0.3-0.8-0.4c-0.3-0.1-0.6-0.1-0.9-0.1c-0.3,0-0.6,0.1-0.9,0.2
	c-0.3,0.1-0.6,0.2-0.8,0.4c-0.2,0.2-0.4,0.4-0.6,0.7s-0.2,0.6-0.2,0.9c0,0.3,0.1,0.6,0.2,0.9c0.1,0.3,0.3,0.5,0.6,0.6
	c0.2,0.2,0.5,0.3,0.8,0.4c0.3,0.1,0.6,0.1,0.9,0.1c0.3,0,0.6,0,0.9-0.1c0.3-0.1,0.6-0.2,0.8-0.4c0.2-0.2,0.4-0.4,0.6-0.7
	C77.3,14.9,77.4,14.6,77.4,14.3z M72.7,9.8c0,0.3,0.1,0.5,0.2,0.7c0.1,0.2,0.3,0.4,0.5,0.5c0.2,0.1,0.4,0.2,0.7,0.3
	c0.3,0.1,0.5,0.1,0.8,0.1c0.2,0,0.5,0,0.7-0.1c0.3-0.1,0.5-0.2,0.7-0.3c0.2-0.1,0.4-0.3,0.5-0.5C77,10.3,77,10,77,9.8
	c0-0.3-0.1-0.5-0.2-0.7c-0.1-0.2-0.3-0.4-0.5-0.5c-0.2-0.1-0.4-0.3-0.7-0.3c-0.3-0.1-0.5-0.1-0.8-0.1c-0.3,0-0.6,0-0.8,0.1
	c-0.3,0.1-0.5,0.2-0.7,0.3c-0.2,0.1-0.4,0.3-0.5,0.5C72.8,9.3,72.7,9.5,72.7,9.8z M86.9,13c0,0.6-0.1,1.2-0.3,1.7
	c-0.2,0.5-0.4,1-0.7,1.3c-0.3,0.4-0.7,0.7-1.1,0.9c-0.4,0.2-0.9,0.3-1.4,0.3s-1-0.1-1.4-0.3c-0.4-0.2-0.8-0.5-1.1-0.9
	c-0.3-0.4-0.6-0.8-0.7-1.3c-0.2-0.5-0.3-1.1-0.3-1.7s0.1-1.2,0.3-1.7c0.2-0.5,0.4-1,0.7-1.3c0.3-0.4,0.7-0.7,1.1-0.9
	c0.4-0.2,0.9-0.3,1.4-0.3s1,0.1,1.4,0.3c0.4,0.2,0.8,0.5,1.1,0.9c0.3,0.4,0.6,0.8,0.7,1.3C86.8,11.9,86.9,12.4,86.9,13z M85.9,13
	c0-0.5-0.1-1-0.2-1.4c-0.1-0.4-0.3-0.8-0.5-1.1c-0.2-0.3-0.5-0.5-0.8-0.7c-0.3-0.2-0.6-0.3-1-0.3c-0.4,0-0.7,0.1-1.1,0.3
	c-0.3,0.2-0.6,0.4-0.8,0.7c-0.2,0.3-0.4,0.6-0.5,1.1c-0.1,0.4-0.2,0.9-0.2,1.4c0,0.5,0.1,1,0.2,1.4c0.1,0.4,0.3,0.8,0.5,1.1
	c0.2,0.3,0.5,0.5,0.8,0.7c0.3,0.2,0.7,0.2,1.1,0.2c0.4,0,0.7-0.1,1-0.2c0.3-0.2,0.6-0.4,0.8-0.7c0.2-0.3,0.4-0.7,0.5-1.1
	C85.9,14,85.9,13.5,85.9,13z M95.5,13c0,0.6-0.1,1.2-0.3,1.7c-0.2,0.5-0.4,1-0.7,1.3c-0.3,0.4-0.7,0.7-1.1,0.9
	c-0.4,0.2-0.9,0.3-1.4,0.3c-0.5,0-1-0.1-1.4-0.3c-0.4-0.2-0.8-0.5-1.1-0.9c-0.3-0.4-0.6-0.8-0.7-1.3c-0.2-0.5-0.3-1.1-0.3-1.7
	s0.1-1.2,0.3-1.7c0.2-0.5,0.4-1,0.7-1.3c0.3-0.4,0.7-0.7,1.1-0.9C91,8.9,91.5,8.8,92,8.8c0.5,0,1,0.1,1.4,0.3
	c0.4,0.2,0.8,0.5,1.1,0.9c0.3,0.4,0.6,0.8,0.7,1.3C95.4,11.9,95.5,12.4,95.5,13z M94.5,13c0-0.5-0.1-1-0.2-1.4
	c-0.1-0.4-0.3-0.8-0.5-1.1c-0.2-0.3-0.5-0.5-0.8-0.7c-0.3-0.2-0.6-0.3-1-0.3c-0.4,0-0.7,0.1-1,0.3c-0.3,0.2-0.6,0.4-0.8,0.7
	c-0.2,0.3-0.4,0.6-0.5,1.1c-0.1,0.4-0.2,0.9-0.2,1.4c0,0.5,0.1,1,0.2,1.4c0.1,0.4,0.3,0.8,0.5,1.1c0.2,0.3,0.5,0.5,0.8,0.7
	c0.3,0.2,0.7,0.2,1,0.2c0.4,0,0.7-0.1,1-0.2c0.3-0.2,0.6-0.4,0.8-0.7c0.2-0.3,0.4-0.7,0.5-1.1C94.5,14,94.5,13.5,94.5,13z M104.1,13
	c0,0.6-0.1,1.2-0.3,1.7c-0.2,0.5-0.4,1-0.7,1.3c-0.3,0.4-0.7,0.7-1.1,0.9c-0.4,0.2-0.9,0.3-1.4,0.3s-1-0.1-1.4-0.3
	c-0.4-0.2-0.8-0.5-1.1-0.9c-0.3-0.4-0.6-0.8-0.7-1.3c-0.2-0.5-0.3-1.1-0.3-1.7s0.1-1.2,0.3-1.7c0.2-0.5,0.4-1,0.7-1.3
	c0.3-0.4,0.7-0.7,1.1-0.9c0.4-0.2,0.9-0.3,1.4-0.3s1,0.1,1.4,0.3c0.4,0.2,0.8,0.5,1.1,0.9c0.3,0.4,0.6,0.8,0.7,1.3
	C104,11.9,104.1,12.4,104.1,13z M103.1,13c0-0.5-0.1-1-0.2-1.4c-0.1-0.4-0.3-0.8-0.5-1.1c-0.2-0.3-0.5-0.5-0.8-0.7
	c-0.3-0.2-0.6-0.3-1-0.3c-0.4,0-0.7,0.1-1.1,0.3c-0.3,0.2-0.6,0.4-0.8,0.7c-0.2,0.3-0.4,0.6-0.5,1.1C98.1,12.1,98,12.5,98,13
	c0,0.5,0.1,1,0.2,1.4c0.1,0.4,0.3,0.8,0.5,1.1c0.2,0.3,0.5,0.5,0.8,0.7c0.3,0.2,0.7,0.2,1.1,0.2c0.4,0,0.7-0.1,1-0.2
	c0.3-0.2,0.6-0.4,0.8-0.7c0.2-0.3,0.4-0.7,0.5-1.1C103.1,14,103.1,13.5,103.1,13z M112.7,13c0,0.6-0.1,1.2-0.3,1.7
	c-0.2,0.5-0.4,1-0.7,1.3c-0.3,0.4-0.7,0.7-1.1,0.9c-0.4,0.2-0.9,0.3-1.4,0.3s-1-0.1-1.4-0.3c-0.4-0.2-0.8-0.5-1.1-0.9
	c-0.3-0.4-0.6-0.8-0.7-1.3c-0.2-0.5-0.3-1.1-0.3-1.7s0.1-1.2,0.3-1.7c0.2-0.5,0.4-1,0.7-1.3c0.3-0.4,0.7-0.7,1.1-0.9
	c0.4-0.2,0.9-0.3,1.4-0.3s1,0.1,1.4,0.3c0.4,0.2,0.8,0.5,1.1,0.9c0.3,0.4,0.6,0.8,0.7,1.3C112.6,11.9,112.7,12.4,112.7,13z
	 M111.8,13c0-0.5-0.1-1-0.2-1.4c-0.1-0.4-0.3-0.8-0.5-1.1c-0.2-0.3-0.5-0.5-0.8-0.7c-0.3-0.2-0.6-0.3-1-0.3c-0.4,0-0.7,0.1-1,0.3
	c-0.3,0.2-0.6,0.4-0.8,0.7c-0.2,0.3-0.4,0.6-0.5,1.1c-0.1,0.4-0.2,0.9-0.2,1.4c0,0.5,0.1,1,0.2,1.4c0.1,0.4,0.3,0.8,0.5,1.1
	c0.2,0.3,0.5,0.5,0.8,0.7c0.3,0.2,0.7,0.2,1,0.2c0.4,0,0.7-0.1,1-0.2c0.3-0.2,0.6-0.4,0.8-0.7c0.2-0.3,0.4-0.7,0.5-1.1
	C111.7,14,111.8,13.5,111.8,13z"/>
<path d="M62.5,54.2h-1.8L60,56.9h1.9v0.8h-2.1l-0.7,2.9h-0.8l0.7-2.9h-2.6l-0.7,2.9h-0.8l0.7-2.9H54v-0.8h1.8l0.7-2.7h-1.8v-0.7h2
	l0.7-2.8h0.8l-0.7,2.8H60l0.7-2.8h0.8l-0.7,2.8h1.6V54.2z M59.2,56.9l0.7-2.7h-2.7l-0.7,2.7H59.2z M63.7,60.6c0-0.3,0-0.7,0.1-1
	c0.1-0.3,0.2-0.7,0.4-1c0.2-0.3,0.4-0.6,0.7-0.9c0.3-0.3,0.7-0.6,1.2-0.8c0.3-0.1,0.5-0.3,0.8-0.4c0.3-0.1,0.6-0.3,0.8-0.5
	s0.5-0.4,0.6-0.6c0.2-0.2,0.3-0.4,0.3-0.7c0-0.2,0-0.4-0.1-0.5c-0.1-0.2-0.2-0.3-0.3-0.5c-0.1-0.1-0.3-0.3-0.6-0.3
	c-0.2-0.1-0.5-0.1-0.8-0.1c-0.3,0-0.6,0-0.8,0.1c-0.2,0.1-0.5,0.2-0.6,0.3c-0.2,0.1-0.3,0.3-0.5,0.4c-0.1,0.1-0.2,0.2-0.3,0.3
	l-0.6-0.7c0.1-0.1,0.2-0.2,0.3-0.3c0.2-0.1,0.4-0.3,0.6-0.4c0.3-0.1,0.6-0.3,0.9-0.4c0.4-0.1,0.8-0.2,1.2-0.2c0.4,0,0.8,0.1,1.1,0.2
	c0.3,0.1,0.6,0.3,0.9,0.5c0.2,0.2,0.4,0.4,0.5,0.7c0.1,0.3,0.2,0.5,0.2,0.8c0,0.4-0.1,0.7-0.3,1c-0.2,0.3-0.4,0.5-0.7,0.7
	c-0.3,0.2-0.5,0.4-0.8,0.5c-0.3,0.1-0.5,0.2-0.7,0.3c-0.4,0.2-0.8,0.4-1,0.5c-0.3,0.2-0.5,0.4-0.7,0.5c-0.2,0.2-0.3,0.4-0.4,0.6
	c-0.1,0.2-0.1,0.5-0.2,0.8h4.9v0.9H63.7z M73.4,60.7c-0.4,0-0.7-0.1-1-0.2c-0.3-0.1-0.6-0.3-0.8-0.5c-0.2-0.2-0.4-0.4-0.5-0.7
	c-0.1-0.3-0.2-0.6-0.2-0.9c0-0.3,0.1-0.6,0.2-0.9c0.1-0.3,0.4-0.5,0.6-0.7c0.3-0.2,0.6-0.3,1-0.4c0.4-0.1,0.8-0.2,1.3-0.2
	c0.4,0,0.7,0,1.1,0.1c0.4,0.1,0.7,0.2,1,0.3V56c0-0.6-0.2-1.2-0.6-1.5c-0.4-0.4-0.9-0.6-1.5-0.6c-0.4,0-0.8,0.1-1.2,0.2
	c-0.4,0.1-0.8,0.4-1.2,0.6l-0.3-0.6c0.5-0.3,0.9-0.6,1.4-0.7c0.4-0.2,0.9-0.2,1.4-0.2c0.9,0,1.6,0.3,2.1,0.8
	c0.5,0.5,0.8,1.2,0.8,2.1v3.3c0,0.3,0.1,0.4,0.3,0.4v0.8c-0.1,0-0.1,0-0.2,0c-0.1,0-0.1,0-0.2,0c-0.2,0-0.4-0.1-0.5-0.2
	c-0.1-0.1-0.2-0.3-0.3-0.5l0-0.6c-0.3,0.4-0.7,0.8-1.3,1C74.5,60.6,74,60.7,73.4,60.7z M73.7,60c0.4,0,0.8-0.1,1.2-0.3
	c0.4-0.2,0.8-0.4,1-0.8c0.1-0.1,0.1-0.2,0.2-0.3c0-0.1,0.1-0.2,0.1-0.3v-1.2c-0.3-0.1-0.6-0.2-1-0.3c-0.3-0.1-0.7-0.1-1-0.1
	c-0.7,0-1.2,0.1-1.7,0.4c-0.4,0.3-0.6,0.6-0.6,1.1c0,0.2,0,0.4,0.1,0.6c0.1,0.2,0.2,0.4,0.3,0.5c0.2,0.1,0.4,0.3,0.6,0.4
	C73.1,60,73.4,60,73.7,60z M78.9,60.6c0-0.3,0-0.7,0.1-1c0.1-0.3,0.2-0.7,0.3-1c0.2-0.3,0.4-0.6,0.7-0.9c0.3-0.3,0.7-0.6,1.2-0.8
	c0.3-0.1,0.5-0.3,0.8-0.4c0.3-0.1,0.6-0.3,0.8-0.5s0.5-0.4,0.6-0.6c0.2-0.2,0.3-0.4,0.3-0.7c0-0.2,0-0.4-0.1-0.5
	c-0.1-0.2-0.2-0.3-0.4-0.5c-0.1-0.1-0.3-0.3-0.6-0.3c-0.2-0.1-0.5-0.1-0.8-0.1c-0.3,0-0.6,0-0.8,0.1c-0.2,0.1-0.5,0.2-0.6,0.3
	c-0.2,0.1-0.3,0.3-0.5,0.4c-0.1,0.1-0.2,0.2-0.3,0.3L79,53.8c0.1-0.1,0.2-0.2,0.3-0.3c0.2-0.1,0.4-0.3,0.6-0.4
	c0.3-0.1,0.6-0.3,0.9-0.4c0.4-0.1,0.8-0.2,1.2-0.2c0.4,0,0.8,0.1,1.1,0.2c0.3,0.1,0.6,0.3,0.9,0.5c0.2,0.2,0.4,0.4,0.5,0.7
	c0.1,0.3,0.2,0.5,0.2,0.8c0,0.4-0.1,0.7-0.3,1c-0.2,0.3-0.4,0.5-0.7,0.7c-0.3,0.2-0.5,0.4-0.8,0.5c-0.3,0.1-0.5,0.2-0.7,0.3
	c-0.4,0.2-0.8,0.4-1.1,0.5c-0.3,0.2-0.5,0.4-0.7,0.5c-0.2,0.2-0.3,0.4-0.4,0.6c-0.1,0.2-0.1,0.5-0.2,0.8h4.9v0.9H78.9z M89.7,60.7
	c-0.5,0-1-0.1-1.4-0.3c-0.4-0.2-0.8-0.5-1.1-0.8c-0.3-0.3-0.6-0.7-0.7-1.2c-0.2-0.5-0.3-0.9-0.3-1.4c0-0.5,0.1-1,0.3-1.5
	c0.2-0.5,0.4-0.9,0.7-1.2c0.3-0.3,0.6-0.6,1-0.8c0.4-0.2,0.9-0.3,1.3-0.3c0.6,0,1.2,0.2,1.6,0.5c0.5,0.3,0.9,0.7,1.1,1.2v-4.5h1v9
	c0,0.3,0.1,0.4,0.3,0.4v0.8c-0.2,0-0.3,0-0.4,0c-0.2,0-0.4-0.1-0.6-0.2c-0.1-0.1-0.2-0.3-0.2-0.5v-0.8c-0.3,0.5-0.7,0.9-1.2,1.1
	C90.7,60.6,90.2,60.7,89.7,60.7z M89.8,59.9c0.2,0,0.5,0,0.8-0.1c0.3-0.1,0.5-0.2,0.7-0.4c0.2-0.2,0.4-0.4,0.6-0.6
	c0.2-0.2,0.3-0.5,0.3-0.7v-2.3c-0.1-0.3-0.2-0.5-0.4-0.7c-0.2-0.2-0.4-0.4-0.6-0.6c-0.2-0.2-0.5-0.3-0.7-0.4
	C90.2,54.1,90,54,89.7,54c-0.4,0-0.8,0.1-1.1,0.3c-0.3,0.2-0.6,0.4-0.8,0.7c-0.2,0.3-0.4,0.6-0.5,0.9c-0.1,0.4-0.2,0.7-0.2,1.1
	c0,0.4,0.1,0.8,0.2,1.1c0.1,0.4,0.3,0.7,0.6,0.9c0.2,0.3,0.5,0.5,0.9,0.6C89.1,59.8,89.5,59.9,89.8,59.9z M100.3,53.3H95v-0.9h6.9
	l-5,9.9h-1.1L100.3,53.3z M106.1,60.7c-0.5,0-1-0.1-1.4-0.3c-0.4-0.2-0.8-0.5-1.1-0.8c-0.3-0.3-0.6-0.7-0.7-1.2
	c-0.2-0.5-0.3-0.9-0.3-1.4c0-0.5,0.1-1,0.3-1.5c0.2-0.5,0.4-0.9,0.7-1.2c0.3-0.3,0.6-0.6,1-0.8c0.4-0.2,0.9-0.3,1.3-0.3
	c0.6,0,1.2,0.2,1.6,0.5c0.5,0.3,0.9,0.7,1.1,1.2v-4.5h1v9c0,0.3,0.1,0.4,0.3,0.4v0.8c-0.2,0-0.3,0-0.4,0c-0.2,0-0.4-0.1-0.6-0.2
	c-0.1-0.1-0.2-0.3-0.2-0.5v-0.8c-0.3,0.5-0.7,0.9-1.2,1.1C107.1,60.6,106.6,60.7,106.1,60.7z M106.3,59.9c0.2,0,0.5,0,0.8-0.1
	c0.3-0.1,0.5-0.2,0.7-0.4c0.2-0.2,0.4-0.4,0.6-0.6c0.2-0.2,0.3-0.5,0.3-0.7v-2.3c-0.1-0.3-0.2-0.5-0.4-0.7c-0.2-0.2-0.4-0.4-0.6-0.6
	c-0.2-0.2-0.5-0.3-0.7-0.4c-0.3-0.1-0.5-0.1-0.8-0.1c-0.4,0-0.8,0.1-1.1,0.3c-0.3,0.2-0.6,0.4-0.8,0.7c-0.2,0.3-0.4,0.6-0.5,0.9
	c-0.1,0.4-0.2,0.7-0.2,1.1c0,0.4,0.1,0.8,0.2,1.1c0.1,0.4,0.3,0.7,0.6,0.9c0.2,0.3,0.5,0.5,0.9,0.6
	C105.5,59.8,105.9,59.9,106.3,59.9z"/>
<path d="M70.4,104.7c-0.6,0-1.1-0.1-1.6-0.4c-0.5-0.3-0.9-0.7-1.1-1.1v1.4h-0.9V94.3h1v4.5c0.3-0.5,0.7-0.9,1.2-1.2
	c0.5-0.3,1-0.5,1.6-0.5c0.5,0,1,0.1,1.4,0.3c0.4,0.2,0.8,0.5,1,0.9c0.3,0.4,0.5,0.8,0.7,1.2c0.2,0.4,0.2,0.9,0.2,1.4
	c0,0.5-0.1,1-0.3,1.5c-0.2,0.5-0.4,0.9-0.7,1.2c-0.3,0.3-0.7,0.6-1.1,0.8C71.3,104.6,70.9,104.7,70.4,104.7z M70.2,103.9
	c0.4,0,0.8-0.1,1.1-0.2c0.3-0.2,0.6-0.4,0.9-0.7c0.2-0.3,0.4-0.6,0.6-0.9c0.1-0.4,0.2-0.7,0.2-1.1c0-0.4-0.1-0.8-0.2-1.1
	c-0.1-0.4-0.3-0.7-0.5-0.9c-0.2-0.3-0.5-0.5-0.8-0.7c-0.3-0.2-0.7-0.3-1-0.3c-0.3,0-0.6,0.1-0.8,0.2c-0.3,0.1-0.5,0.2-0.7,0.4
	c-0.2,0.2-0.4,0.4-0.6,0.6c-0.2,0.2-0.3,0.4-0.4,0.7v2.3c0,0.3,0.1,0.5,0.3,0.7c0.2,0.2,0.4,0.4,0.6,0.6c0.2,0.2,0.5,0.3,0.7,0.4
	C69.7,103.8,69.9,103.9,70.2,103.9z M75.8,104.6v-5.7h-1v-0.8h1v-1c0-0.9,0.2-1.6,0.6-2.1c0.4-0.5,0.9-0.8,1.6-0.8
	c0.3,0,0.6,0,0.8,0.1c0.3,0.1,0.5,0.2,0.7,0.3l-0.3,0.7c-0.1-0.1-0.3-0.2-0.5-0.2c-0.2-0.1-0.4-0.1-0.6-0.1c-0.4,0-0.8,0.2-1,0.5
	c-0.2,0.3-0.3,0.8-0.3,1.5v1.1h2v0.8h-2v5.7H75.8z M85.2,97.3h-5.4v-0.9h6.9l-5,9.9h-1.1L85.2,97.3z M88.3,104.6v-5.7h-1v-0.8h1v-1
	c0-0.9,0.2-1.6,0.6-2.1c0.4-0.5,0.9-0.8,1.6-0.8c0.3,0,0.6,0,0.8,0.1s0.5,0.2,0.7,0.3l-0.3,0.7c-0.1-0.1-0.3-0.2-0.5-0.2
	c-0.2-0.1-0.4-0.1-0.6-0.1c-0.4,0-0.8,0.2-1,0.5c-0.2,0.3-0.3,0.8-0.3,1.5v1.1h2v0.8h-2v5.7H88.3z M96.3,104.7
	c-0.6,0-1.1-0.1-1.6-0.4c-0.5-0.3-0.9-0.7-1.1-1.1v1.4h-0.9V94.3h1v4.5c0.3-0.5,0.7-0.9,1.2-1.2c0.5-0.3,1-0.5,1.6-0.5
	c0.5,0,1,0.1,1.4,0.3c0.4,0.2,0.8,0.5,1,0.9c0.3,0.4,0.5,0.8,0.7,1.2c0.2,0.4,0.2,0.9,0.2,1.4c0,0.5-0.1,1-0.3,1.5
	c-0.2,0.5-0.4,0.9-0.7,1.2c-0.3,0.3-0.7,0.6-1.1,0.8C97.3,104.6,96.8,104.7,96.3,104.7z M96.1,103.9c0.4,0,0.8-0.1,1.1-0.2
	c0.3-0.2,0.6-0.4,0.9-0.7c0.2-0.3,0.4-0.6,0.6-0.9c0.1-0.4,0.2-0.7,0.2-1.1c0-0.4-0.1-0.8-0.2-1.1c-0.1-0.4-0.3-0.7-0.5-0.9
	c-0.2-0.3-0.5-0.5-0.8-0.7c-0.3-0.2-0.7-0.3-1-0.3c-0.3,0-0.6,0.1-0.8,0.2c-0.3,0.1-0.5,0.2-0.7,0.4c-0.2,0.2-0.4,0.4-0.6,0.6
	c-0.2,0.2-0.3,0.4-0.4,0.7v2.3c0,0.3,0.1,0.5,0.3,0.7c0.2,0.2,0.4,0.4,0.6,0.6c0.2,0.2,0.5,0.3,0.7,0.4
	C95.6,103.8,95.9,103.9,96.1,103.9z M100.9,100c0-0.5,0.1-0.9,0.3-1.3c0.2-0.4,0.4-0.8,0.7-1.1c0.3-0.3,0.7-0.6,1.1-0.7
	c0.4-0.2,0.9-0.3,1.4-0.3c0.5,0,1,0.1,1.4,0.3c0.4,0.2,0.8,0.5,1.1,0.8c0.3,0.4,0.6,0.8,0.7,1.3c0.2,0.5,0.3,1.1,0.3,1.7
	c0,1-0.1,1.9-0.3,2.6c-0.2,0.7-0.4,1.4-0.8,1.9c-0.3,0.5-0.7,0.9-1.1,1.1c-0.4,0.2-0.9,0.4-1.5,0.4c-0.7,0-1.2-0.2-1.8-0.5
	c-0.5-0.3-0.9-0.8-1.2-1.4l0.6-0.6c0.2,0.5,0.5,0.9,0.9,1.1c0.4,0.3,0.9,0.4,1.4,0.4c0.4,0,0.8-0.1,1.1-0.3c0.3-0.2,0.6-0.5,0.9-0.9
	c0.2-0.4,0.4-0.8,0.6-1.3c0.1-0.5,0.2-1.2,0.2-1.8c-0.2,0.6-0.6,1-1.1,1.3c-0.5,0.3-1.1,0.5-1.7,0.5c-0.5,0-0.9-0.1-1.3-0.3
	c-0.4-0.2-0.8-0.4-1.1-0.7c-0.3-0.3-0.6-0.7-0.7-1.1C101,100.9,100.9,100.5,100.9,100z M104.4,97.4c-0.4,0-0.7,0.1-1,0.2
	c-0.3,0.1-0.6,0.3-0.8,0.5c-0.2,0.2-0.4,0.5-0.6,0.8c-0.1,0.3-0.2,0.6-0.2,1c0,0.4,0.1,0.7,0.2,1c0.1,0.3,0.3,0.6,0.6,0.8
	c0.2,0.2,0.5,0.4,0.8,0.6c0.3,0.1,0.7,0.2,1,0.2c0.4,0,0.7-0.1,1-0.2c0.3-0.1,0.6-0.3,0.8-0.6c0.2-0.2,0.4-0.5,0.6-0.8
	c0.1-0.3,0.2-0.7,0.2-1c0-0.3-0.1-0.7-0.2-1c-0.1-0.3-0.3-0.6-0.6-0.8c-0.2-0.2-0.5-0.4-0.8-0.6C105.1,97.5,104.8,97.4,104.4,97.4z
	 M111.8,104.6l-3-7.3h1l2.5,6.4l2.5-6.4h0.9l-3,7.3H111.8z"/>
<path d="M62.5,178.1h-1.8l-0.7,2.7h1.9v0.8h-2.1l-0.7,2.9h-0.8l0.7-2.9h-2.6l-0.7,2.9h-0.8l0.7-2.9H54v-0.8h1.8l0.7-2.7h-1.8v-0.7h2
	l0.7-2.8h0.8l-0.7,2.8H60l0.7-2.8h0.8l-0.7,2.8h1.6V178.1z M59.2,180.9l0.7-2.7h-2.7l-0.7,2.7H59.2z M70.2,175
	c-0.3,0-0.5,0.1-0.7,0.2c-0.2,0.1-0.4,0.3-0.5,0.5c-0.1,0.2-0.2,0.4-0.3,0.6c-0.1,0.2-0.1,0.5-0.1,0.7v1.1h2.3v0.8h-2.3v5.7h-1v-5.7
	h-2.3v5.7h-1v-5.7h-1v-0.8h1v-0.6c0-0.4,0-0.7,0.1-1c0.1-0.3,0.2-0.6,0.4-0.9c0.2-0.3,0.4-0.5,0.7-0.6c0.3-0.2,0.6-0.2,1-0.2
	c0.3,0,0.6,0,0.9,0.1c0.3,0.1,0.5,0.2,0.7,0.3c0.2-0.3,0.4-0.5,0.7-0.7c0.3-0.2,0.7-0.3,1.1-0.3c0.2,0,0.4,0,0.6,0.1
	c0.2,0,0.3,0.1,0.4,0.1c0.1,0,0.2,0.1,0.3,0.2c0.1,0,0.1,0.1,0.2,0.1l-0.3,0.7c-0.1-0.1-0.2-0.1-0.4-0.2C70.7,175,70.5,175,70.2,175
	z M67.7,177.1c0-0.2,0-0.4,0.1-0.7c0-0.3,0.1-0.5,0.2-0.6c-0.2-0.1-0.3-0.2-0.6-0.2c-0.2,0-0.4-0.1-0.6-0.1c-0.3,0-0.5,0.1-0.7,0.2
	c-0.2,0.1-0.3,0.3-0.4,0.5c-0.1,0.2-0.2,0.4-0.2,0.6c0,0.2-0.1,0.4-0.1,0.6v0.6h2.3V177.1z M76.2,181.2c0.6,0.1,1.1,0.4,1.5,0.8
	c0.4,0.5,0.6,1,0.6,1.7c0,0.4-0.1,0.8-0.2,1.1c-0.1,0.4-0.4,0.7-0.7,0.9c-0.3,0.3-0.6,0.4-1,0.6c-0.4,0.1-0.8,0.2-1.3,0.2
	c-0.7,0-1.3-0.1-1.9-0.4c-0.5-0.3-0.9-0.7-1.2-1.2l0.7-0.6c0.2,0.4,0.5,0.7,0.9,1c0.4,0.2,0.9,0.4,1.5,0.4c0.7,0,1.3-0.2,1.7-0.5
	c0.4-0.3,0.6-0.8,0.6-1.5c0-0.6-0.2-1.2-0.6-1.5c-0.4-0.4-1-0.6-1.8-0.6h-0.3v-0.8h0.4c0.7,0,1.3-0.2,1.7-0.5s0.6-0.8,0.6-1.3
	c0-0.3-0.1-0.5-0.2-0.7c-0.1-0.2-0.2-0.4-0.4-0.5c-0.2-0.1-0.4-0.3-0.6-0.3c-0.2-0.1-0.5-0.1-0.8-0.1c-0.5,0-1,0.1-1.4,0.4
	c-0.4,0.2-0.7,0.6-0.9,1l-0.6-0.6c0.1-0.2,0.3-0.5,0.5-0.7c0.2-0.2,0.4-0.4,0.7-0.5c0.3-0.1,0.6-0.2,0.9-0.3c0.3-0.1,0.6-0.1,1-0.1
	c0.4,0,0.8,0.1,1.2,0.2c0.4,0.1,0.7,0.3,0.9,0.5c0.3,0.2,0.5,0.5,0.6,0.8c0.1,0.3,0.2,0.6,0.2,1c0,0.3,0,0.6-0.1,0.8
	c-0.1,0.3-0.2,0.5-0.4,0.7c-0.2,0.2-0.4,0.4-0.6,0.5C76.8,181.1,76.5,181.2,76.2,181.2z M83.7,181.2c0.6,0.1,1.1,0.4,1.5,0.8
	c0.4,0.5,0.6,1,0.6,1.7c0,0.4-0.1,0.8-0.2,1.1c-0.1,0.4-0.4,0.7-0.7,0.9c-0.3,0.3-0.6,0.4-1,0.6c-0.4,0.1-0.8,0.2-1.3,0.2
	c-0.7,0-1.3-0.1-1.9-0.4c-0.5-0.3-0.9-0.7-1.2-1.2l0.7-0.6c0.2,0.4,0.5,0.7,0.9,1c0.4,0.2,0.9,0.4,1.5,0.4c0.7,0,1.3-0.2,1.7-0.5
	c0.4-0.3,0.6-0.8,0.6-1.5c0-0.6-0.2-1.2-0.6-1.5c-0.4-0.4-1-0.6-1.8-0.6H82v-0.8h0.4c0.7,0,1.3-0.2,1.7-0.5c0.4-0.3,0.6-0.8,0.6-1.3
	c0-0.3-0.1-0.5-0.2-0.7c-0.1-0.2-0.2-0.4-0.4-0.5c-0.2-0.1-0.4-0.3-0.6-0.3c-0.2-0.1-0.5-0.1-0.8-0.1c-0.5,0-1,0.1-1.4,0.4
	c-0.4,0.2-0.7,0.6-0.9,1l-0.6-0.6c0.1-0.2,0.3-0.5,0.5-0.7c0.2-0.2,0.4-0.4,0.7-0.5c0.3-0.1,0.6-0.2,0.9-0.3c0.3-0.1,0.6-0.1,1-0.1
	c0.4,0,0.8,0.1,1.2,0.2c0.4,0.1,0.7,0.3,0.9,0.5c0.3,0.2,0.5,0.5,0.6,0.8c0.1,0.3,0.2,0.6,0.2,1c0,0.3,0,0.6-0.1,0.8
	c-0.1,0.3-0.2,0.5-0.4,0.7c-0.2,0.2-0.4,0.4-0.6,0.5C84.3,181.1,84,181.2,83.7,181.2z M90.3,180.2c0.5,0,0.9,0.1,1.3,0.2
	c0.4,0.1,0.7,0.4,1,0.6c0.3,0.3,0.5,0.6,0.7,1c0.2,0.4,0.3,0.8,0.3,1.3c0,0.5-0.1,0.9-0.3,1.3c-0.2,0.4-0.4,0.8-0.7,1
	c-0.3,0.3-0.7,0.5-1.1,0.7c-0.4,0.2-0.9,0.2-1.3,0.2c-0.4,0-0.7,0-1-0.1c-0.3-0.1-0.6-0.2-0.9-0.4s-0.5-0.4-0.7-0.6
	c-0.2-0.2-0.4-0.5-0.5-0.8l0.6-0.5c0.3,0.5,0.6,0.8,1.1,1.1c0.5,0.3,1,0.4,1.5,0.4c0.3,0,0.7-0.1,1-0.2c0.3-0.1,0.6-0.3,0.8-0.5
	c0.2-0.2,0.4-0.5,0.5-0.8c0.1-0.3,0.2-0.6,0.2-1c0-0.3-0.1-0.7-0.2-0.9c-0.1-0.3-0.3-0.5-0.5-0.7c-0.2-0.2-0.5-0.4-0.8-0.5
	c-0.3-0.1-0.6-0.2-0.9-0.2c-0.4,0-0.9,0.1-1.3,0.3c-0.4,0.2-0.7,0.5-0.9,0.8h-0.9c0-0.1,0-0.2,0.1-0.4s0.1-0.4,0.1-0.7
	c0.1-0.3,0.1-0.6,0.2-0.9c0.1-0.3,0.1-0.7,0.2-1c0.2-0.8,0.3-1.7,0.5-2.6h4.8v0.9H89l-0.7,3.6c0.2-0.3,0.5-0.5,0.9-0.6
	C89.5,180.2,89.9,180.2,90.3,180.2z M99.8,183.7v0.9H95v-0.9h2v-6c-0.1,0.1-0.2,0.2-0.4,0.4c-0.2,0.1-0.4,0.3-0.6,0.4
	c-0.2,0.1-0.4,0.2-0.7,0.3c-0.2,0.1-0.4,0.1-0.6,0.1v-0.9c0.2,0,0.4-0.1,0.7-0.2c0.3-0.1,0.5-0.3,0.7-0.4c0.2-0.2,0.4-0.3,0.6-0.4
	c0.2-0.1,0.2-0.2,0.3-0.3h1v7.1H99.8z"/>
<path d="M74.4,197.5h-1.8l-0.7,2.7h1.9v0.8h-2.1l-0.7,2.9h-0.8L71,201h-2.6l-0.7,2.9h-0.8l0.7-2.9H66v-0.8h1.8l0.7-2.7h-1.8v-0.7h2
	l0.7-2.8h0.8l-0.7,2.8H72l0.7-2.8h0.8l-0.7,2.8h1.6V197.5z M71.2,200.3l0.7-2.7h-2.7l-0.7,2.7H71.2z M82.2,194.4
	c-0.3,0-0.5,0.1-0.7,0.2c-0.2,0.1-0.4,0.3-0.5,0.5c-0.1,0.2-0.2,0.4-0.3,0.6c-0.1,0.2-0.1,0.5-0.1,0.7v1.1h2.3v0.8h-2.3v5.7h-1v-5.7
	h-2.3v5.7h-1v-5.7h-1v-0.8h1v-0.6c0-0.4,0-0.7,0.1-1c0.1-0.3,0.2-0.6,0.4-0.9c0.2-0.3,0.4-0.5,0.7-0.6c0.3-0.2,0.6-0.2,1-0.2
	c0.3,0,0.6,0,0.9,0.1c0.3,0.1,0.5,0.2,0.7,0.3c0.2-0.3,0.4-0.5,0.7-0.7c0.3-0.2,0.7-0.3,1.1-0.3c0.2,0,0.4,0,0.6,0.1
	c0.2,0,0.3,0.1,0.4,0.1c0.1,0,0.2,0.1,0.3,0.2c0.1,0,0.1,0.1,0.2,0.1l-0.3,0.7c-0.1-0.1-0.2-0.1-0.4-0.2
	C82.7,194.4,82.5,194.4,82.2,194.4z M79.6,196.5c0-0.2,0-0.4,0.1-0.7c0-0.3,0.1-0.5,0.2-0.6c-0.2-0.1-0.3-0.2-0.6-0.2
	c-0.2,0-0.4-0.1-0.6-0.1c-0.3,0-0.5,0.1-0.7,0.2c-0.2,0.1-0.3,0.3-0.4,0.5c-0.1,0.2-0.2,0.4-0.2,0.6c0,0.2-0.1,0.4-0.1,0.6v0.6h2.3
	V196.5z M91.2,200.6c0,0.5-0.1,0.9-0.3,1.3c-0.2,0.4-0.4,0.8-0.7,1.1c-0.3,0.3-0.7,0.6-1.1,0.7c-0.4,0.2-0.9,0.3-1.4,0.3
	c-0.5,0-1-0.1-1.4-0.3c-0.4-0.2-0.8-0.5-1.1-0.8c-0.3-0.4-0.6-0.8-0.7-1.3c-0.2-0.5-0.3-1.1-0.3-1.8c0-1,0.1-1.9,0.3-2.6
	c0.2-0.8,0.4-1.4,0.7-1.9c0.3-0.5,0.7-0.9,1.2-1.1c0.4-0.2,0.9-0.4,1.5-0.4c0.7,0,1.2,0.2,1.8,0.5c0.5,0.3,0.9,0.8,1.2,1.4l-0.6,0.6
	c-0.2-0.5-0.5-0.9-0.9-1.1c-0.4-0.3-0.9-0.4-1.4-0.4c-0.4,0-0.8,0.1-1.1,0.3s-0.6,0.5-0.9,0.9c-0.2,0.4-0.4,0.8-0.6,1.4
	c-0.1,0.5-0.2,1.2-0.2,1.8c0.2-0.6,0.6-1,1.1-1.3c0.5-0.3,1.1-0.5,1.7-0.5c0.5,0,0.9,0.1,1.3,0.3c0.4,0.2,0.8,0.4,1.1,0.7
	c0.3,0.3,0.6,0.7,0.7,1.1C91.1,199.7,91.2,200.2,91.2,200.6z M87.7,203.2c0.4,0,0.7-0.1,1-0.2c0.3-0.1,0.6-0.3,0.8-0.6
	c0.2-0.2,0.4-0.5,0.6-0.8c0.1-0.3,0.2-0.7,0.2-1c0-0.4-0.1-0.7-0.2-1c-0.1-0.3-0.3-0.6-0.6-0.8c-0.2-0.2-0.5-0.4-0.8-0.5
	c-0.3-0.1-0.6-0.2-1-0.2c-0.4,0-0.7,0.1-1,0.2c-0.3,0.1-0.6,0.3-0.8,0.5c-0.2,0.2-0.4,0.5-0.6,0.8c-0.1,0.3-0.2,0.6-0.2,1
	c0,0.4,0.1,0.7,0.2,1s0.3,0.6,0.6,0.8c0.2,0.2,0.5,0.4,0.8,0.6C87,203.2,87.4,203.2,87.7,203.2z M92.6,203.9c0-0.3,0-0.7,0.1-1
	c0.1-0.3,0.2-0.7,0.3-1c0.2-0.3,0.4-0.6,0.7-0.9c0.3-0.3,0.7-0.6,1.2-0.8c0.3-0.1,0.5-0.3,0.8-0.4c0.3-0.1,0.6-0.3,0.8-0.5
	s0.5-0.4,0.6-0.6c0.2-0.2,0.3-0.4,0.3-0.7c0-0.2,0-0.4-0.1-0.5c-0.1-0.2-0.2-0.3-0.3-0.5c-0.1-0.1-0.3-0.3-0.6-0.3
	c-0.2-0.1-0.5-0.1-0.8-0.1c-0.3,0-0.6,0-0.8,0.1c-0.2,0.1-0.5,0.2-0.6,0.3c-0.2,0.1-0.3,0.3-0.5,0.4c-0.1,0.1-0.2,0.2-0.3,0.3
	l-0.6-0.7c0.1-0.1,0.2-0.2,0.3-0.3c0.2-0.1,0.4-0.3,0.6-0.4c0.3-0.1,0.6-0.3,0.9-0.4c0.4-0.1,0.8-0.2,1.2-0.2c0.4,0,0.8,0.1,1.1,0.2
	c0.3,0.1,0.6,0.3,0.9,0.5c0.2,0.2,0.4,0.4,0.5,0.7c0.1,0.3,0.2,0.5,0.2,0.8c0,0.4-0.1,0.7-0.3,1c-0.2,0.3-0.4,0.5-0.7,0.7
	c-0.3,0.2-0.5,0.4-0.8,0.5c-0.3,0.1-0.5,0.2-0.7,0.3c-0.4,0.2-0.8,0.4-1.1,0.5c-0.3,0.2-0.5,0.4-0.7,0.5c-0.2,0.2-0.3,0.4-0.4,0.6
	c-0.1,0.2-0.1,0.5-0.2,0.8h4.9v0.9H92.6z M107.2,200.6c0,0.5-0.1,0.9-0.3,1.3c-0.2,0.4-0.4,0.8-0.7,1.1c-0.3,0.3-0.7,0.6-1.1,0.7
	c-0.4,0.2-0.9,0.3-1.4,0.3c-0.5,0-1-0.1-1.4-0.3c-0.4-0.2-0.8-0.5-1.1-0.8c-0.3-0.4-0.6-0.8-0.7-1.3c-0.2-0.5-0.3-1.1-0.3-1.8
	c0-1,0.1-1.9,0.3-2.6c0.2-0.8,0.4-1.4,0.7-1.9c0.3-0.5,0.7-0.9,1.2-1.1c0.4-0.2,0.9-0.4,1.5-0.4c0.7,0,1.2,0.2,1.8,0.5
	c0.5,0.3,0.9,0.8,1.2,1.4l-0.6,0.6c-0.2-0.5-0.5-0.9-0.9-1.1c-0.4-0.3-0.9-0.4-1.4-0.4c-0.4,0-0.8,0.1-1.1,0.3
	c-0.3,0.2-0.6,0.5-0.9,0.9c-0.2,0.4-0.4,0.8-0.6,1.4c-0.1,0.5-0.2,1.2-0.2,1.8c0.2-0.6,0.6-1,1-1.3c0.5-0.3,1.1-0.5,1.7-0.5
	c0.5,0,0.9,0.1,1.3,0.3c0.4,0.2,0.8,0.4,1.1,0.7c0.3,0.3,0.6,0.7,0.7,1.1C107.1,199.7,107.2,200.2,107.2,200.6z M103.7,203.2
	c0.4,0,0.7-0.1,1-0.2c0.3-0.1,0.6-0.3,0.8-0.6c0.2-0.2,0.4-0.5,0.6-0.8c0.1-0.3,0.2-0.7,0.2-1c0-0.4-0.1-0.7-0.2-1
	c-0.1-0.3-0.3-0.6-0.6-0.8c-0.2-0.2-0.5-0.4-0.8-0.5c-0.3-0.1-0.6-0.2-1-0.2c-0.4,0-0.7,0.1-1,0.2c-0.3,0.1-0.6,0.3-0.8,0.5
	c-0.2,0.2-0.4,0.5-0.6,0.8c-0.1,0.3-0.2,0.6-0.2,1c0,0.4,0.1,0.7,0.2,1s0.3,0.6,0.6,0.8c0.2,0.2,0.5,0.4,0.8,0.6
	C103,203.2,103.3,203.2,103.7,203.2z M108.5,203.9c0-0.3,0-0.7,0.1-1c0.1-0.3,0.2-0.7,0.4-1c0.2-0.3,0.4-0.6,0.7-0.9
	c0.3-0.3,0.7-0.6,1.2-0.8c0.3-0.1,0.5-0.3,0.8-0.4c0.3-0.1,0.6-0.3,0.8-0.5c0.3-0.2,0.5-0.4,0.6-0.6c0.2-0.2,0.3-0.4,0.3-0.7
	c0-0.2,0-0.4-0.1-0.5c-0.1-0.2-0.2-0.3-0.3-0.5c-0.2-0.1-0.3-0.3-0.6-0.3c-0.2-0.1-0.5-0.1-0.8-0.1c-0.3,0-0.6,0-0.8,0.1
	c-0.2,0.1-0.5,0.2-0.6,0.3c-0.2,0.1-0.3,0.3-0.5,0.4c-0.1,0.1-0.2,0.2-0.3,0.3l-0.6-0.7c0.1-0.1,0.2-0.2,0.3-0.3
	c0.2-0.1,0.4-0.3,0.6-0.4c0.3-0.1,0.6-0.3,0.9-0.4c0.4-0.1,0.8-0.2,1.2-0.2c0.4,0,0.8,0.1,1.1,0.2c0.3,0.1,0.6,0.3,0.9,0.5
	c0.2,0.2,0.4,0.4,0.5,0.7c0.1,0.3,0.2,0.5,0.2,0.8c0,0.4-0.1,0.7-0.3,1c-0.2,0.3-0.4,0.5-0.7,0.7c-0.3,0.2-0.5,0.4-0.8,0.5
	c-0.3,0.1-0.5,0.2-0.7,0.3c-0.4,0.2-0.8,0.4-1,0.5c-0.3,0.2-0.5,0.4-0.7,0.5c-0.2,0.2-0.3,0.4-0.4,0.6c-0.1,0.2-0.1,0.5-0.2,0.8h4.9
	v0.9H108.5z"/>
<path d="M62.5,257h-1.8l-0.7,2.7h1.9v0.8h-2.1l-0.7,2.9h-0.8l0.7-2.9h-2.6l-0.7,2.9h-0.8l0.7-2.9H54v-0.8h1.8l0.7-2.7h-1.8v-0.7h2
	l0.7-2.8h0.8l-0.7,2.8H60l0.7-2.8h0.8l-0.7,2.8h1.6V257z M59.2,259.8l0.7-2.7h-2.7l-0.7,2.7H59.2z M70.2,253.9
	c-0.3,0-0.5,0.1-0.7,0.2c-0.2,0.1-0.4,0.3-0.5,0.5c-0.1,0.2-0.2,0.4-0.3,0.6c-0.1,0.2-0.1,0.5-0.1,0.7v1.1h2.3v0.8h-2.3v5.7h-1v-5.7
	h-2.3v5.7h-1v-5.7h-1V257h1v-0.6c0-0.4,0-0.7,0.1-1c0.1-0.3,0.2-0.6,0.4-0.9c0.2-0.3,0.4-0.5,0.7-0.6c0.3-0.2,0.6-0.2,1-0.2
	c0.3,0,0.6,0,0.9,0.1c0.3,0.1,0.5,0.2,0.7,0.3c0.2-0.3,0.4-0.5,0.7-0.7c0.3-0.2,0.7-0.3,1.1-0.3c0.2,0,0.4,0,0.6,0.1
	c0.2,0,0.3,0.1,0.4,0.1c0.1,0,0.2,0.1,0.3,0.2c0.1,0,0.1,0.1,0.2,0.1l-0.3,0.7c-0.1-0.1-0.2-0.1-0.4-0.2
	C70.7,253.9,70.5,253.9,70.2,253.9z M67.7,256c0-0.2,0-0.4,0.1-0.7c0-0.3,0.1-0.5,0.2-0.6c-0.2-0.1-0.3-0.2-0.6-0.2
	c-0.2,0-0.4-0.1-0.6-0.1c-0.3,0-0.5,0.1-0.7,0.2c-0.2,0.1-0.3,0.3-0.4,0.5c-0.1,0.2-0.2,0.4-0.2,0.6c0,0.2-0.1,0.4-0.1,0.6v0.6h2.3
	V256z M76.4,265.2v-2.5h-4.7v-0.8l5-6.4h0.7v6.4h1.2v0.9h-1.2v2.5H76.4z M72.7,261.9h3.8v-4.9L72.7,261.9z M83.8,260.1
	c0.6,0.1,1.1,0.4,1.5,0.8c0.4,0.5,0.6,1,0.6,1.7c0,0.4-0.1,0.8-0.2,1.1c-0.1,0.4-0.4,0.7-0.7,0.9c-0.3,0.3-0.6,0.4-1,0.6
	c-0.4,0.1-0.8,0.2-1.3,0.2c-0.7,0-1.3-0.1-1.9-0.4c-0.5-0.3-0.9-0.7-1.2-1.2l0.7-0.6c0.2,0.4,0.5,0.7,0.9,1c0.4,0.2,0.9,0.4,1.5,0.4
	c0.7,0,1.3-0.2,1.7-0.5c0.4-0.3,0.6-0.8,0.6-1.5c0-0.6-0.2-1.2-0.6-1.5c-0.4-0.4-1-0.6-1.8-0.6H82v-0.8h0.4c0.7,0,1.3-0.2,1.7-0.5
	c0.4-0.3,0.6-0.8,0.6-1.3c0-0.3-0.1-0.5-0.2-0.7c-0.1-0.2-0.2-0.4-0.4-0.5c-0.2-0.1-0.4-0.3-0.6-0.3c-0.2-0.1-0.5-0.1-0.8-0.1
	c-0.5,0-1,0.1-1.4,0.4c-0.4,0.2-0.7,0.6-0.9,1l-0.6-0.6c0.1-0.2,0.3-0.5,0.5-0.7c0.2-0.2,0.4-0.4,0.7-0.5s0.6-0.2,0.9-0.3
	c0.3-0.1,0.6-0.1,1-0.1c0.4,0,0.8,0.1,1.2,0.2c0.4,0.1,0.7,0.3,0.9,0.5c0.3,0.2,0.5,0.5,0.6,0.8c0.1,0.3,0.2,0.6,0.2,1
	c0,0.3,0,0.6-0.1,0.8c-0.1,0.3-0.2,0.5-0.4,0.7c-0.2,0.2-0.4,0.4-0.6,0.5C84.3,260,84.1,260.1,83.8,260.1z M91.5,265.2v-2.5h-4.7
	v-0.8l5-6.4h0.7v6.4h1.2v0.9h-1.2v2.5H91.5z M87.8,261.9h3.8v-4.9L87.8,261.9z M99,265.2v-2.5h-4.7v-0.8l5-6.4h0.7v6.4h1.2v0.9H100
	v2.5H99z M95.4,261.9h3.8v-4.9L95.4,261.9z"/>
<path d="M74.4,276.4h-1.8l-0.7,2.7h1.9v0.8h-2.1l-0.7,2.9h-0.8l0.7-2.9h-2.6l-0.7,2.9h-0.8l0.7-2.9H66v-0.8h1.8l0.7-2.7h-1.8v-0.7h2
	l0.7-2.8h0.8l-0.7,2.8H72l0.7-2.8h0.8l-0.7,2.8h1.6V276.4z M71.2,279.2l0.7-2.7h-2.7l-0.7,2.7H71.2z M82.2,273.3
	c-0.3,0-0.5,0.1-0.7,0.2c-0.2,0.1-0.4,0.3-0.5,0.5c-0.1,0.2-0.2,0.4-0.3,0.6c-0.1,0.2-0.1,0.5-0.1,0.7v1.1h2.3v0.8h-2.3v5.7h-1v-5.7
	h-2.3v5.7h-1v-5.7h-1v-0.8h1v-0.6c0-0.4,0-0.7,0.1-1c0.1-0.3,0.2-0.6,0.4-0.9c0.2-0.3,0.4-0.5,0.7-0.6c0.3-0.2,0.6-0.2,1-0.2
	c0.3,0,0.6,0,0.9,0.1c0.3,0.1,0.5,0.2,0.7,0.3c0.2-0.3,0.4-0.5,0.7-0.7c0.3-0.2,0.7-0.3,1.1-0.3c0.2,0,0.4,0,0.6,0.1
	c0.2,0,0.3,0.1,0.4,0.1c0.1,0,0.2,0.1,0.3,0.2c0.1,0,0.1,0.1,0.2,0.1l-0.3,0.7c-0.1-0.1-0.2-0.1-0.4-0.2
	C82.7,273.4,82.5,273.3,82.2,273.3z M79.6,275.4c0-0.2,0-0.4,0.1-0.7c0-0.3,0.1-0.5,0.2-0.6c-0.2-0.1-0.3-0.2-0.6-0.2
	c-0.2,0-0.4-0.1-0.6-0.1c-0.3,0-0.5,0.1-0.7,0.2c-0.2,0.1-0.3,0.3-0.4,0.5c-0.1,0.2-0.2,0.4-0.2,0.6c0,0.2-0.1,0.4-0.1,0.6v0.6h2.3
	V275.4z M87.4,283c-0.5,0-1-0.1-1.4-0.3c-0.4-0.2-0.8-0.5-1.1-0.8c-0.3-0.3-0.6-0.7-0.7-1.2c-0.2-0.5-0.3-0.9-0.3-1.4
	c0-0.5,0.1-1,0.3-1.5c0.2-0.5,0.4-0.9,0.7-1.2c0.3-0.3,0.6-0.6,1.1-0.8c0.4-0.2,0.9-0.3,1.3-0.3c0.6,0,1.2,0.2,1.6,0.5
	c0.5,0.3,0.9,0.7,1.1,1.2v-4.5h1v9c0,0.3,0.1,0.4,0.3,0.4v0.8c-0.2,0-0.3,0-0.4,0c-0.2,0-0.4-0.1-0.6-0.2c-0.1-0.1-0.2-0.3-0.2-0.5
	v-0.8c-0.3,0.5-0.7,0.9-1.2,1.1C88.4,282.8,87.9,283,87.4,283z M87.6,282.1c0.2,0,0.5,0,0.8-0.1c0.3-0.1,0.5-0.2,0.7-0.4
	c0.2-0.2,0.4-0.4,0.6-0.6c0.2-0.2,0.3-0.5,0.3-0.7v-2.3c-0.1-0.3-0.2-0.5-0.4-0.7c-0.2-0.2-0.4-0.4-0.6-0.6
	c-0.2-0.2-0.5-0.3-0.7-0.4c-0.3-0.1-0.5-0.1-0.8-0.1c-0.4,0-0.8,0.1-1.1,0.3c-0.3,0.2-0.6,0.4-0.8,0.7c-0.2,0.3-0.4,0.6-0.5,0.9
	c-0.1,0.4-0.2,0.7-0.2,1.1c0,0.4,0.1,0.8,0.2,1.1c0.1,0.4,0.3,0.7,0.6,0.9c0.2,0.3,0.5,0.5,0.9,0.6
	C86.9,282.1,87.2,282.1,87.6,282.1z M97.8,282v0.9H93V282h2v-6c-0.1,0.1-0.2,0.2-0.4,0.4c-0.2,0.1-0.4,0.3-0.6,0.4
	c-0.2,0.1-0.4,0.2-0.7,0.3c-0.2,0.1-0.4,0.1-0.6,0.1v-0.9c0.2,0,0.4-0.1,0.7-0.2c0.3-0.1,0.5-0.3,0.7-0.4c0.2-0.2,0.4-0.3,0.6-0.4
	c0.2-0.1,0.2-0.2,0.3-0.3h1v7.1H97.8z M102.1,283c-0.5,0-1-0.1-1.4-0.3c-0.4-0.2-0.8-0.5-1.1-0.8c-0.3-0.3-0.6-0.7-0.7-1.2
	c-0.2-0.5-0.3-0.9-0.3-1.4c0-0.5,0.1-1,0.3-1.5c0.2-0.5,0.4-0.9,0.7-1.2c0.3-0.3,0.6-0.6,1-0.8c0.4-0.2,0.9-0.3,1.3-0.3
	c0.6,0,1.2,0.2,1.6,0.5c0.5,0.3,0.9,0.7,1.1,1.2v-4.5h1v9c0,0.3,0.1,0.4,0.3,0.4v0.8c-0.2,0-0.3,0-0.4,0c-0.2,0-0.4-0.1-0.6-0.2
	c-0.1-0.1-0.2-0.3-0.2-0.5v-0.8c-0.3,0.5-0.7,0.9-1.2,1.1C103.2,282.8,102.6,283,102.1,283z M102.3,282.1c0.2,0,0.5,0,0.8-0.1
	c0.3-0.1,0.5-0.2,0.7-0.4c0.2-0.2,0.4-0.4,0.6-0.6c0.2-0.2,0.3-0.5,0.3-0.7v-2.3c-0.1-0.3-0.2-0.5-0.4-0.7c-0.2-0.2-0.4-0.4-0.6-0.6
	c-0.2-0.2-0.5-0.3-0.7-0.4c-0.3-0.1-0.5-0.1-0.8-0.1c-0.4,0-0.8,0.1-1.1,0.3c-0.3,0.2-0.6,0.4-0.8,0.7c-0.2,0.3-0.4,0.6-0.5,0.9
	c-0.1,0.4-0.2,0.7-0.2,1.1c0,0.4,0.1,0.8,0.2,1.1c0.1,0.4,0.3,0.7,0.6,0.9c0.2,0.3,0.5,0.5,0.9,0.6
	C101.6,282.1,101.9,282.1,102.3,282.1z M112.5,282v0.9h-4.7V282h2v-6c-0.1,0.1-0.2,0.2-0.4,0.4c-0.2,0.1-0.4,0.3-0.6,0.4
	c-0.2,0.1-0.4,0.2-0.7,0.3c-0.2,0.1-0.4,0.1-0.6,0.1v-0.9c0.2,0,0.4-0.1,0.7-0.2c0.3-0.1,0.5-0.3,0.7-0.4c0.2-0.2,0.4-0.3,0.6-0.4
	c0.2-0.1,0.2-0.2,0.3-0.3h1v7.1H112.5z"/>
<path class="st0" d="M1.7,53.5c-2,4.3-2.3,9.5-0.2,13.7c2.1,4.2,7,7.2,11.6,6.4c1.4-0.3,2.7-0.8,4-1.5c2.7-1.6,4.9-4,6.2-6.9
	c1.4-2.8,1.9-6,1.4-9.1C23.8,50.6,19.5,45,14,43.5C8.5,41.9,3.6,49.3,1.7,53.5z"/>
<path class="st1" d="M1.7,10.2c-2,4.3-2.3,9.5-0.2,13.7c2.1,4.2,7,7.2,11.6,6.4c1.4-0.3,2.7-0.8,4-1.5c2.7-1.6,4.9-4,6.2-6.9
	c1.4-2.8,1.9-6,1.4-9.1C23.8,7.4,19.5,1.7,14,0.2C8.5-1.3,3.6,6,1.7,10.2z"/>
<path class="st2" d="M1.7,180.3c-2,4.3-2.3,9.5-0.2,13.7c2.1,4.2,7,7.2,11.6,6.4c1.4-0.3,2.7-0.8,4-1.5c2.7-1.6,4.9-4,6.2-6.9
	c1.4-2.8,1.9-6,1.4-9.1c-0.8-5.4-5.2-11.1-10.6-12.6C8.6,168.8,3.6,176.1,1.7,180.3z"/>
<path class="st3" d="M13.8,195.5c-2,4.3-2.3,9.5-0.2,13.7c2.1,4.2,7,7.2,11.6,6.4c1.4-0.3,2.8-0.8,4-1.5c2.7-1.6,4.9-4,6.2-6.9
	c1.4-2.8,1.9-6,1.4-9.1c-0.9-5.4-5.2-11.1-10.7-12.6S15.8,191.3,13.8,195.5z"/>
<path class="st4" d="M1.7,250.4c-2,4.3-2.3,9.5-0.2,13.7c2.1,4.2,7,7.2,11.6,6.4c1.4-0.3,2.7-0.8,4-1.5c2.7-1.6,4.9-4,6.2-6.9
	c1.4-2.8,1.9-6,1.4-9.1c-0.8-5.4-5.2-11.1-10.6-12.6C8.6,238.9,3.6,246.2,1.7,250.4z"/>
<path class="st5" d="M13.8,265.6c-2,4.3-2.3,9.5-0.2,13.7c2.1,4.2,7,7.2,11.6,6.4c1.4-0.3,2.8-0.8,4-1.5c2.7-1.6,4.9-4,6.2-6.9
	c1.4-2.8,1.9-6,1.4-9.1c-0.9-5.4-5.2-11.1-10.7-12.6C20.8,254.1,15.8,261.4,13.8,265.6z"/>
<path class="st6" d="M1.7,96.8c-2,4.3-2.3,9.5-0.2,13.7c2.1,4.2,7,7.2,11.6,6.4c1.4-0.3,2.7-0.8,4-1.5c2.7-1.6,4.9-4,6.2-6.9
	s1.9-6,1.4-9.1c-0.8-5.4-5.2-11.1-10.7-12.6C8.5,85.3,3.6,92.5,1.7,96.8z"/>
<g>
	<defs>
		<rect id="SVGID_1_" x="160" y="61" width="66.4" height="146.5"/>
	</defs>
	<clipPath id="SVGID_2_">
		<use xlink:href="#SVGID_1_"  style="overflow:visible;"/>
	</clipPath>
	<g class="st7">
		<path class="st8" d="M201.4,71.5c0-5.8-6.1-10.5-13.7-10.5c-7.6,0-13.7,4.7-13.7,10.5c0,2.3,0.9,4.4,2.5,6.1
			c-0.6,1.3-1.4,2.5-2.4,3.6c-0.1,0.1-0.1,0.2-0.1,0.3c0,0.1,0,0.2,0,0.3c0,0.1,0.1,0.2,0.2,0.2c0.1,0.1,0.2,0.1,0.3,0.1
			c2.1,0,4.1-0.6,5.8-1.6c2.3,1.1,4.8,1.6,7.3,1.6C195.2,82,201.4,77.3,201.4,71.5z"/>
		<path class="st4" d="M185.1,80.3c0-5.8,6.1-10.5,13.7-10.5c7.5,0,13.7,4.7,13.7,10.5c0,2.3-0.9,4.4-2.5,6c0.6,1.3,1.4,2.5,2.4,3.6
			c0.1,0.1,0.1,0.2,0.1,0.3c0,0.1,0,0.2,0,0.3c0,0.1-0.1,0.2-0.2,0.2c-0.1,0.1-0.2,0.1-0.3,0.1c-2.1,0-4.1-0.6-5.8-1.6
			c-2.3,1.1-4.8,1.7-7.3,1.6C191.2,90.9,185.1,86.1,185.1,80.3z"/>
		<path class="st3" d="M201.6,188.5c0-5.8-6.1-10.5-13.6-10.5s-13.7,4.7-13.7,10.5c0.1,2.2,0.9,4.4,2.5,6c-0.6,1.3-1.4,2.5-2.4,3.6
			c-0.1,0.1-0.1,0.2-0.1,0.3c0,0.1,0,0.2,0,0.3c0,0.1,0.1,0.2,0.2,0.2c0.1,0.1,0.2,0.1,0.3,0.1c2.1,0,4.1-0.6,5.8-1.6
			c2.3,1.1,4.8,1.7,7.3,1.6C195.5,199,201.6,194.3,201.6,188.5z M209.6,203c1.6-1.6,2.5-3.8,2.5-6.1c0-4.4-3.5-8.2-8.5-9.7
			c0.1,0.4,0.1,0.9,0.1,1.3c0,7-7.1,12.6-15.8,12.6c-0.7,0-1.4,0-2.1-0.1c2.1,3.8,6.9,6.4,12.6,6.4c2.5,0,5-0.6,7.3-1.7
			c1.8,1.1,3.8,1.6,5.8,1.7c0.1,0,0.2,0,0.3-0.1c0.1-0.1,0.2-0.1,0.2-0.2c0-0.1,0.1-0.2,0-0.3c0-0.1-0.1-0.2-0.1-0.3
			C211,205.5,210.2,204.3,209.6,203L209.6,203z"/>
		<path class="st8" d="M203.1,114.3c-9.2-4-20.2-4.7-29.3-0.4c-9,4.3-15.3,14-13.6,23.4c0.6,2.8,1.7,5.6,3.2,8
			c6.7,10.9,20.9,17.3,34.2,15.4c11.5-1.7,23.7-10.5,26.9-21.4C227.7,128.2,212.1,118.2,203.1,114.3z"/>
		<path class="st4" d="M207.1,110.9c-8.1-3.8-17.9-4.5-25.9-0.4c-8,4.1-13.5,13.3-12,22.3c0.5,2.7,1.4,5.2,2.8,7.6
			c3,5.2,7.5,9.3,12.9,11.9c5.4,2.6,11.4,3.6,17.3,2.8c10.2-1.6,21-9.9,23.8-20.4C228.8,124.2,215.1,114.7,207.1,110.9z"/>
		<path class="st9" d="M199.9,130.1c0-5.8-6.1-10.5-13.7-10.5c-7.5,0-13.7,4.7-13.7,10.5c0.1,2.2,0.9,4.4,2.5,6
			c-0.6,1.3-1.4,2.5-2.4,3.6c-0.1,0.1-0.1,0.2-0.1,0.3c0,0.1,0,0.2,0,0.3c0,0.1,0.1,0.2,0.2,0.2c0.1,0.1,0.2,0.1,0.3,0.1
			c2,0,4.1-0.6,5.8-1.6c2.3,1.1,4.8,1.7,7.3,1.6C193.8,140.6,199.9,135.9,199.9,130.1z M207.9,144.6c1.6-1.6,2.5-3.8,2.5-6
			c0-4.4-3.5-8.2-8.5-9.7c0.1,0.4,0.1,0.8,0.1,1.3c0,7-7.1,12.6-15.8,12.6c-0.7,0-1.4,0-2.1-0.1c2.1,3.8,6.9,6.4,12.6,6.4
			c2.5,0,5-0.6,7.3-1.6c1.8,1.1,3.8,1.6,5.8,1.6c0.1,0,0.2,0,0.3-0.1c0.1-0.1,0.2-0.1,0.2-0.2c0-0.1,0.1-0.2,0-0.3
			c0-0.1-0.1-0.2-0.1-0.3C209.3,147.1,208.6,145.9,207.9,144.6L207.9,144.6z"/>
	</g>
</g>
</svg>
