<svg xmlns="http://www.w3.org/2000/svg" viewBox="0 0 218.12 247.06"><defs><style>.cls-1,.cls-17{font-size:14px;}.cls-1,.cls-16,.cls-7{font-family:NeuzeitGro-Bol, Neuzeit Grotesk;}.cls-2{letter-spacing:0em;}.cls-3{letter-spacing:-0.01em;}.cls-4{letter-spacing:0em;}.cls-5{letter-spacing:0em;}.cls-6{letter-spacing:0em;}.cls-16,.cls-7{font-size:25px;fill:none;stroke-miterlimit:10;letter-spacing:0.05em;}.cls-7{stroke:#00008c;stroke-width:0.8px;}.cls-8{letter-spacing:0.04em;}.cls-9{letter-spacing:0.06em;}.cls-10{letter-spacing:0.05em;}.cls-11{letter-spacing:0.04em;}.cls-12{letter-spacing:0.03em;}.cls-13{letter-spacing:0.06em;}.cls-14{letter-spacing:0.06em;}.cls-15{letter-spacing:0.05em;}.cls-16{stroke:#ff2031;stroke-width:0.67px;}.cls-17{font-family:WarnockPro-Light, Warnock Pro;font-weight:300;}.cls-18{letter-spacing:-0.07em;}.cls-19{letter-spacing:0.01em;}.cls-20{letter-spacing:0.01em;}.cls-21{letter-spacing:-0.01em;}.cls-22{letter-spacing:-0.01em;}.cls-23{letter-spacing:0.01em;}.cls-24{letter-spacing:-0.01em;}</style></defs><title>typography</title><g id="Layer_2" data-name="Layer 2"><g id="Layer_1-2" data-name="Layer 1"><text class="cls-1" transform="translate(0.4 168.21)"><tspan class="cls-2">N</tspan><tspan x="9.72" y="0">e</tspan><tspan class="cls-3" x="17.5" y="0">uz</tspan><tspan x="30.31" y="0">eit Gr</tspan><tspan class="cls-4" x="64.99" y="0">o</tspan><tspan class="cls-5" x="72.93" y="0">t</tspan><tspan x="76.83" y="0">e</tspan><tspan class="cls-6" x="84.62" y="0">s</tspan><tspan x="90.49" y="0">k</tspan><tspan x="0" y="16.8">Bold</tspan></text><text class="cls-7" transform="translate(0.4 21.24)">NE<tspan class="cls-8" x="31.32" y="0">U</tspan><tspan class="cls-9" x="48.37" y="0">Z</tspan><tspan class="cls-10" x="63.57" y="0">EIT G</tspan><tspan class="cls-11" x="126.12" y="0">R</tspan><tspan class="cls-12" x="141.67" y="0">O</tspan><tspan class="cls-13" x="161.6" y="0">T</tspan><tspan class="cls-14" x="174.65" y="0">E</tspan><tspan x="187.72" y="0">SK</tspan><tspan class="cls-15"><tspan x="0" y="30">B</tspan><tspan class="cls-10" x="15.6" y="30">OLD</tspan></tspan></text><text class="cls-16" transform="translate(0.4 96.93)">NE<tspan class="cls-8" x="31.32" y="0">U</tspan><tspan class="cls-9" x="48.37" y="0">Z</tspan><tspan class="cls-10" x="63.57" y="0">EIT G</tspan><tspan class="cls-11" x="126.12" y="0">R</tspan><tspan class="cls-12" x="141.67" y="0">O</tspan><tspan class="cls-13" x="161.6" y="0">T</tspan><tspan class="cls-14" x="174.65" y="0">E</tspan><tspan x="187.72" y="0">SK</tspan><tspan class="cls-15"><tspan x="0" y="30">B</tspan><tspan class="cls-10" x="15.6" y="30">OLD</tspan></tspan></text><text class="cls-17" transform="translate(0.4 223.05)"><tspan class="cls-18">W</tspan><tspan x="13.26" y="0">a</tspan><tspan class="cls-19" x="19.5" y="0">r</tspan><tspan x="24.86" y="0">n</tspan><tspan class="cls-20" x="32.55" y="0">o</tspan><tspan class="cls-21" x="39.97" y="0">c</tspan><tspan x="46.16" y="0">k P</tspan><tspan class="cls-22" x="63.99" y="0">r</tspan><tspan x="69.13" y="0">o </tspan><tspan class="cls-23" x="0" y="16.8">L</tspan><tspan x="7.88" y="16.8">ig</tspan><tspan class="cls-24" x="18.12" y="16.8">h</tspan><tspan x="25.58" y="16.8">t</tspan></text></g></g></svg>