<svg width="20" height="20" viewBox="0 0 20 20" fill="none" xmlns="http://www.w3.org/2000/svg">
<path d="M4.94343 19C4.17892 17.7342 2.78192 17.1412 1.65682 16.4237C1.45097 16.2925 0.848337 15.8726 1.03559 16.038C1.41655 16.3746 1.78923 16.7066 2.20668 16.9825C2.83792 17.3997 3.51151 17.735 4.17949 18.0605C4.26522 18.1023 4.86708 18.4837 4.99799 18.4066C5.03481 18.3849 4.55368 17.8138 4.4901 17.7539" stroke="black" stroke-linecap="round" stroke-linejoin="round"/>
<path d="M10.2021 4C10.2235 4.89306 11.5777 16.1496 11.0347 15.9985C9.73112 15.6358 7.16725 14.5686 6.21221 13.6195C5.06753 12.4819 9.10109 15.0722 10.549 15.7916C12.3905 16.7067 15.9101 12.068 12.7001 12.068C11.3819 12.068 3.08068 11.3639 7.07957 12.6886" stroke="black" stroke-linecap="round" stroke-linejoin="round"/>
<path d="M5.58115 19C7.35623 18.7033 9.20831 18.6927 10.9982 18.6161C12.5092 18.5514 14.0229 18.4944 15.5351 18.4944C19.2106 18.4944 8.18428 18.4944 4.50885 18.4944C0.683124 18.4944 19.8094 18.2415 15.9837 18.2415C14.4584 18.2415 12.9133 18.3889 11.3912 18.4756C10.0388 18.5527 5.98759 18.785 7.34125 18.8268C9.70193 18.8996 12.0713 18.7756 14.4287 18.6629C14.6546 18.6521 18.4694 18.7133 18.5 18.2884C18.5348 17.8049 18.7075 17.2899 18.8417 16.8276C18.9346 16.5079 18.6118 17.285 18.5171 17.4082C18.4209 17.5333 17.8718 18.3578 18.0984 17.7453C18.2299 17.3898 18.4231 17.0633 18.6068 16.7387C18.736 16.5103 19.1483 15.8733 18.9443 16.0223C18.8682 16.078 18.7921 16.3012 18.7392 16.3782C18.5188 16.6987 18.2628 16.9845 18.0044 17.2677C17.7963 17.4958 17.5531 17.8852 17.2696 17.9887" stroke="black" stroke-linecap="round" stroke-linejoin="round"/>
<path d="M7.83872 11.9041C9.31679 11.8563 10.7838 11.641 12.2458 11.4151C12.9529 11.3058 13.6603 11.1961 14.3651 11.0708C14.4783 11.0507 14.8 10.9548 14.7066 11.0259C14.5294 11.1609 13.9929 11.2067 13.8364 11.2354C13.08 11.3743 12.3195 11.4875 11.5627 11.6247C10.1226 11.8857 8.61325 12.0736 7.23988 12.6327C6.45599 12.9518 7.83337 12.837 7.96036 12.8323C9.89656 12.7606 11.8152 12.4283 13.7335 12.1636C14.441 12.066 16.5655 11.7912 15.8575 11.8842C14.2817 12.091 12.6931 12.1786 11.1183 12.3981C10.3095 12.5109 7.90192 12.7956 8.71358 12.8822C10.2021 13.0409 11.819 12.7365 13.2984 12.5778C14.0925 12.4926 16.4639 12.139 15.6751 12.2684C14.71 12.4268 13.7483 12.666 12.7978 12.9021C11.8734 13.1318 10.5601 13.2827 9.76155 13.8752C9.48995 14.0767 11.1273 13.978 11.2633 13.96C11.962 13.8677 12.8778 13.8762 13.5324 13.5708C13.6002 13.5391 13.4216 13.5575 13.4809 13.4311" stroke="black" stroke-linecap="round" stroke-linejoin="round"/>
<path d="M14.1373 11.8544C13.7862 12.7691 13.3981 13.5878 12.9244 14.4198C12.702 14.8103 12.0748 16.0007 12.3447 15.6541C12.845 15.0116 13.2469 14.2593 13.6645 13.5437C14.1216 12.7602 14.7002 12.004 15.0501 11.1429C15.1148 10.9836 14.6609 11.817 14.5896 11.9318C13.9795 12.914 13.2414 13.7744 12.5338 14.657C12.3229 14.92 12.0801 15.1851 11.8924 15.475C11.8678 15.513 11.9784 15.4734 12.0116 15.446C12.7566 14.832 13.4085 14.0136 14.0674 13.2823C14.6889 12.5927 15.3915 11.9091 15.934 11.1283C16.3144 10.581 14.946 11.9343 14.4744 12.3723C13.4557 13.3187 12.439 14.2943 11.5388 15.3976C11.3855 15.5854 10.905 16.1125 11.0948 15.9784C11.2937 15.8379 11.5016 15.4608 11.6334 15.2669C12.2978 14.2891 12.9302 13.2343 13.389 12.1013C13.6158 11.5411 13.5981 11.3268 13.2657 11.898C12.7965 12.7041 12.3666 13.5495 11.9664 14.4053C11.9007 14.5459 11.6089 15.5427 11.4771 15.6202C11.2834 15.7343 11.6719 14.8836 11.4566 14.8555C11.2936 14.8341 11.1339 15.1575 10.8974 15.0588C10.4604 14.8762 10.0368 14.4828 9.64749 14.1972C9.12105 13.8109 8.57925 13.4297 8.0851 12.9871C7.30403 12.2874 9.70106 14.302 10.5438 14.8942C10.5457 14.8955 11.2483 15.3428 10.9961 15.0781C10.2686 14.3148 9.21098 13.8405 8.31535 13.4517C7.59286 13.1381 5.51588 12.0815 6.10334 12.6676C6.64524 13.2082 7.3926 13.5346 8.0111 13.9358C8.47252 14.2351 8.96048 14.5741 9.47481 14.7296C9.71888 14.8034 9.82965 14.7236 9.64749 14.4779C9.33765 14.0599 8.92257 13.7314 8.50448 13.4808C8.32486 13.3731 8.47307 13.4831 8.58671 13.5098" stroke="black" stroke-linecap="round" stroke-linejoin="round"/>
<path d="M10.7414 14C10.7326 13.0688 10.621 12.1545 10.5576 11.2293C10.4588 9.79038 10.4302 8.33867 10.3794 6.89471C10.313 5.00661 10.1151 3.15426 10.0174 1.27676C9.94583 -0.0998081 10.1178 4.03522 10.1209 5.41585C10.1248 7.2163 10.0691 9.01445 10.0691 10.8128C10.0691 12.2499 10.2049 7.94574 10.2731 6.51224C10.3494 4.91052 10.4427 3.30249 10.5863 1.71022C10.8139 -0.814976 10.5665 6.81122 10.7012 9.35096C10.7474 10.2223 10.8865 11.055 10.8966 11.9347C10.9026 12.4625 11 13.005 11 13.524C11 13.6881 10.9033 13.4278 10.8966 13.3966C10.791 12.9098 10.859 12.3552 10.8391 11.854C10.823 11.4494 10.8053 10.9468 10.6897 10.5706C10.61 10.3113 10.5213 11.1036 10.5058 11.1953C10.3965 11.8423 10.2841 12.4891 10.1783 13.1373C10.0945 13.6511 10.1529 13.5669 10.1726 13.0948C10.2023 12.3802 10.2505 11.6682 10.276 10.9531C10.2909 10.5354 10.3751 10.0306 10.3019 9.61868C10.2952 9.58137 10.2451 10.1296 10.3794 10.3284" stroke="black" stroke-linecap="round" stroke-linejoin="round"/>
<path d="M6.11895 12.9873C5.83679 12.8961 3.93559 12.3842 4.00168 12.1172C4.01372 12.0685 5.44131 12.327 5.54948 12.3531C5.69427 12.388 6.69292 12.6646 6.10435 12.4269C5.77661 12.2944 5.43338 12.1983 5.11142 12.0552C4.84677 11.9376 4.83625 12.0243 5.06032 12.1614C5.58711 12.4837 6.18364 12.7044 6.77604 12.9342C6.9783 13.0126 7.0423 13.0487 6.97316 12.8811" stroke="black" stroke-linecap="round" stroke-linejoin="round"/>
<path d="M9.62061 14C9.9398 14.3973 10.358 14.6842 10.8443 14.9112C11.2093 15.0815 10.8409 14.9638 10.6695 14.9112C10.1848 14.7625 9.62684 14.6982 9.18359 14.4642C9.07933 14.4092 8.88103 14.3095 9.09618 14.3095" stroke="black" stroke-linecap="round" stroke-linejoin="round"/>
</svg>
