<svg width="50" height="33" viewBox="0 0 50 33" fill="none" xmlns="http://www.w3.org/2000/svg">
<path d="M7.52038 20.28L16.3044 33H24.2724L15.4404 20.712C20.3844 19.464 23.0244 16.104 23.0244 11.064C23.0244 4.488 18.7524 0.983997 10.8324 0.983997H0.944375V33H7.52038V20.28ZM7.52038 16.44V6.408H11.0724C14.3364 6.408 16.3524 8.328 16.3524 11.4C16.3524 14.616 14.2404 16.44 10.4964 16.44H7.52038ZM42.4636 0.839999C38.3356 0.839999 35.0236 4.152 35.0236 8.232C35.0236 12.312 38.3356 15.624 42.4636 15.624C46.4956 15.624 49.8076 12.312 49.8076 8.328C49.8076 4.152 46.5436 0.839999 42.4636 0.839999ZM42.3676 3.432C45.0076 3.432 47.1196 5.592 47.1196 8.328C47.1196 10.872 44.9596 13.032 42.4156 13.032C39.8236 13.032 37.7116 10.872 37.7116 8.232C37.7116 5.64 39.8236 3.432 42.3676 3.432Z" fill="black"/>
</svg>
