<svg width="269" height="534" viewBox="0 0 269 534" fill="none" xmlns="http://www.w3.org/2000/svg">
<path opacity="0.5" d="M184.909 7.32333C124.301 21.1611 65.1035 52.8711 29.6646 105.979C-5.77424 159.086 -12.0303 235.722 24.9816 287.642C53.0977 327.1 100.416 346.763 146.884 355.021C213.404 366.822 284.571 358.245 342.666 322.462C400.76 286.68 443.721 221.884 446.867 151.602C449.29 97.1934 421.228 18.0881 367.31 -1.74474C317.822 -19.9752 234.306 -3.93164 184.909 7.32333Z" fill="#A0D3B6"/>
<path opacity="0.5" d="M351.688 284.59C353.853 268.96 355.673 251.709 346.091 236.592C333.611 216.945 307.481 209.241 284.807 205.855C231.223 197.831 176.632 201.641 134.446 224.85C92.2602 248.059 64.2416 292.552 69.9451 342.764C76.7616 403.313 135.675 463.657 200.283 477.357C252.169 488.347 312.663 467.748 332.989 425.64C339.826 411.352 338.357 394.373 339.442 378.221C341.544 346.603 347.355 315.639 351.688 284.59Z" fill="#D2D2D2"/>
</svg>
