<svg width="23" height="22" viewBox="0 0 23 22" fill="none" xmlns="http://www.w3.org/2000/svg">
<path d="M6.50003 0.5C6.1522 0.97827 4.5821 2.52651 5.27781 3.22222C5.5743 3.51871 6.19367 3.64159 6.50003 3.27778C7.27488 2.35764 6.05517 -0.267296 6.00003 1.11111C5.91191 3.31415 6.56457 1.28676 6.38892 1.11111C5.98965 0.711832 4.25292 2.37537 5.50003 2.88889C6.69661 3.3816 6.58773 0.634523 5.61115 1.61111C5.05283 2.16942 8.05248 1.96426 7.38892 1.11111C6.8283 0.390308 5.87839 1.06753 6.50003 2" stroke="black" stroke-linecap="round" stroke-linejoin="round"/>
<path d="M17.0001 2.5C11.5589 6.75095 22.6885 4.8911 18.1112 1.72222C14.4975 -0.779593 15.5052 6.11391 16.889 3.5C17.6522 2.05839 15.6196 3.827 16.1112 4.38889C16.4634 4.79141 16.7939 2.93333 16.389 3.38889C15.5596 4.32194 16.9374 5.67776 17.0001 4.11111C17.0253 3.48201 17.0001 1.99887 17.0001 3.5" stroke="black" stroke-linecap="round" stroke-linejoin="round"/>
<path d="M1 9C5.59317 13.454 8.06663 13 14 13C18.0936 13 18.3567 11.3217 21 10" stroke="black" stroke-linecap="round" stroke-linejoin="round"/>
<path d="M0.5 9.5C1.79967 13.0168 2.94152 16.4479 6.13889 18.75C8.68299 20.5818 13.4298 22.2077 16.5556 21C19.1949 19.9803 20.044 17.8958 20.8889 15.3611C21.2112 14.3942 21.6171 13.1362 21.7361 12.125C21.7859 11.702 21.75 10.1978 21.75 10.25" stroke="black" stroke-linecap="round" stroke-linejoin="round"/>
</svg>
