<svg xmlns="http://www.w3.org/2000/svg" xmlns:xlink="http://www.w3.org/1999/xlink" viewBox="0 0 93 100.42"><defs><style>.cls-1,.cls-24,.cls-3{fill:none;}.cls-2{fill:#93aab1;}.cls-3{stroke:#495d64;}.cls-24,.cls-3,.cls-40{stroke-miterlimit:10;}.cls-4{fill:#a7c188;}.cls-5{fill:#3a4f30;}.cls-6{fill:#1c5128;}.cls-7{fill:#47554b;}.cls-8{fill:#88b588;}.cls-9{fill:#ebe3d3;}.cls-10{fill:#667574;}.cls-11{fill:#93878f;}.cls-12{fill:#d1cab8;}.cls-13{fill:#d6d6ae;}.cls-14{fill:#e5ddd1;}.cls-15{fill:#ab9174;}.cls-16{fill:#e1cfb9;}.cls-17{fill:#9f8568;}.cls-18{fill:#d6c0a7;}.cls-19{fill:#b8a887;}.cls-20{fill:#8a6944;}.cls-21{fill:#ddd2bf;}.cls-22{fill:#8e7356;}.cls-23{fill:#ccbaab;}.cls-24,.cls-40{stroke:#231f20;stroke-width:0.25px;}.cls-24{opacity:0.43;}.cls-25{fill:#f4d3a4;}.cls-26{fill:#856235;}.cls-27{fill:#7a7161;}.cls-28{fill:#c0b9ac;}.cls-29{fill:#818791;}.cls-30{fill:#313226;}.cls-31{fill:#403824;}.cls-32{fill:#5e6b5b;}.cls-33{fill:#847c77;}.cls-34{fill:#a39993;}.cls-35{fill:#eae5dc;}.cls-36{fill:#ece5d3;}.cls-37{fill:#6b7a69;}.cls-38{fill:#b5b0ae;}.cls-39{fill:#6f5e43;}.cls-40{opacity:0.26;fill:url(#streha_2);}.cls-41{fill:#f1ebe3;}.cls-42{fill:#cebba3;}.cls-43{fill:#dcd3c3;}.cls-44{fill:#f2ece1;}.cls-45{fill:#d7caad;}.cls-46{fill:#8d977f;}.cls-47{fill:#4a574a;}.cls-48{fill:#697260;}.cls-49{fill:#41574f;}.cls-50{fill:#323e2f;}.cls-51{fill:#2a2a24;}.cls-52{fill:#f8f9fc;}.cls-53{fill:#403b2d;}.cls-54{fill:#898478;}.cls-55{fill:#666f71;}.cls-56{fill:#aca59a;}.cls-57{fill:#747367;}.cls-58{fill:#93948a;}.cls-59{fill:#686656;}.cls-60{fill:#716f63;}.cls-61{fill:#dddad3;}.cls-62{fill:#ece8de;}.cls-63{fill:#c0c3a9;}.cls-64{fill:#939475;}.cls-65{fill:#f3f4c6;}.cls-66{fill:#f4f4f5;}.cls-67{fill:#4a8479;}.cls-68{fill:#7dafa7;}.cls-69{fill:#75726c;}.cls-70{fill:#999791;}.cls-71{fill:#68655b;}.cls-72{fill:#e8e6cc;}.cls-73{fill:#dfe6df;}.cls-74{fill:#e3d5bb;}.cls-75{fill:#b8bca4;}.cls-76{fill:#898e80;}.cls-77{fill:#b79b73;}.cls-78{fill:#603913;}.cls-79{fill:#fff;}.cls-80{fill:#eae4da;}.cls-81{fill:#d1ba95;}.cls-82{fill:#bababa;}.cls-83{fill:#616562;}.cls-84{fill:#a04e24;}</style><pattern id="streha_2" data-name="streha 2" width="16.17" height="15.25" patternTransform="translate(4.26 -33.5)" patternUnits="userSpaceOnUse" viewBox="0 0 16.17 15.25"><rect class="cls-1" width="16.17" height="15.25"/><rect class="cls-2" x="0.5" y="0.08" width="15.17" height="15.17"/><line class="cls-3" x1="0.5" x2="0.5" y2="15.25"/><line class="cls-3" x1="5.56" x2="5.56" y2="15.25"/><line class="cls-3" x1="10.61" x2="10.61" y2="15.25"/><line class="cls-3" x1="15.67" x2="15.67" y2="15.25"/></pattern></defs><title>Asset 4</title><g id="Layer_2" data-name="Layer 2"><g id="Layer_6" data-name="Layer 6"><path class="cls-4" d="M46.81,59.4h-1.6a8.55,8.55,0,0,0-2.75.77,4.18,4.18,0,0,0-1.54,1,14.12,14.12,0,0,0-1.63,1.56,8.5,8.5,0,0,0-1,1.57,5.28,5.28,0,0,0-.58,2,23.86,23.86,0,0,0-.1,4.31,19.17,19.17,0,0,0,.54,3.35,12,12,0,0,0,1.2,2.61,11.81,11.81,0,0,0,1.77,2.4,28.78,28.78,0,0,0,2.71,2.7,11.09,11.09,0,0,0,2.31,1.79c.55.27,1.12.48,1.67.74a10.44,10.44,0,0,0,1.95.74c1.13.29,2.22.73,3.35,1a52.79,52.79,0,0,0,5.86.89,46.33,46.33,0,0,0,5.4.35,38.71,38.71,0,0,0,9.27-1.33,57.2,57.2,0,0,0,7.67-2.6A11.64,11.64,0,0,0,84.81,81a22.54,22.54,0,0,0,3.1-3.85c.92-1.41,1.81-2.82,2.66-4.28a27.61,27.61,0,0,0,1.5-3.27,14.87,14.87,0,0,0,.8-2.53,8.23,8.23,0,0,0,0-2.8c0-.45,0-.9-.1-1.34s-.24-.93-.34-1.4a13,13,0,0,0-1.13-3.62,9,9,0,0,0-2.24-2.57,12.64,12.64,0,0,0-4.75-2.07,34,34,0,0,0-19.06.33A59.59,59.59,0,0,0,57,56.7a31.37,31.37,0,0,1-6.39,2.46A36,36,0,0,1,46.81,59.4Z"/><path class="cls-5" d="M44.41,60.28a2.41,2.41,0,0,1-.27.78c-.28.62-.52,1.25-.75,1.9A25.79,25.79,0,0,0,42,67.3a14.46,14.46,0,0,0,0,3.6A6.89,6.89,0,0,0,43,73.8a10.62,10.62,0,0,0,1.51,2.28,13.42,13.42,0,0,0,4.47,3,22.51,22.51,0,0,0,4.24,1.43,45,45,0,0,0,5.43.68,24.44,24.44,0,0,0,8.8-.8c1.21-.33,2.45-.65,3.64-1a31.21,31.21,0,0,0,3.72-1.58,20.81,20.81,0,0,0,6.45-5.28,14.47,14.47,0,0,0,2.1-3.14,14.08,14.08,0,0,0,1.09-4.19,7.62,7.62,0,0,0,.15-2.93A8.17,8.17,0,0,0,83.45,60a17.52,17.52,0,0,0-2.36-3A14.11,14.11,0,0,0,78,54.39a11.93,11.93,0,0,0-4.33-1.33,41.63,41.63,0,0,0-6.41-.38c-5.65,0-11.89.42-16.93,3.26a10.22,10.22,0,0,0-1.77,1.13,4.62,4.62,0,0,0-.86,1.29C47.23,59.22,46.3,59.82,44.41,60.28Z"/><path class="cls-4" d="M4.68,59.23c-8.17,6-3.95,12.18-.08,18.94,2.53,4.72,10.15,4,15.23,2.18a9.37,9.37,0,0,0,4-2.54C28.92,70.83,32.75,63,37.32,56Z"/><path class="cls-5" d="M6.36,65.4a10.11,10.11,0,0,0,2.31,6.54,8.49,8.49,0,0,0,9.15,2.3A15.46,15.46,0,0,0,22.6,70.9c2.25-2.1,4.41-4.32,6.45-6.63,1.26-1.44,2.56-3.19,2.22-5.07A4.48,4.48,0,0,0,28.08,56a13.06,13.06,0,0,0-4.71-.31,56.71,56.71,0,0,0-11.69,1.5c-1.63.44-3.46.71-4.19,2.3A14.29,14.29,0,0,0,6.36,65.4Z"/><path class="cls-6" d="M7.58,47.89h0Z"/><path class="cls-6" d="M75.63,47.93c-1.48-.42-1.19-1.82-1.4-2a.61.61,0,0,0-.15-.13.62.62,0,0,0-.19-.07,5.92,5.92,0,0,1-1.12-.44,1.08,1.08,0,0,1-.13.29.12.12,0,0,1-.06.06c-.06,0-.14,0-.18-.08s-.06-.13-.11-.17a.45.45,0,0,1-.34,0,.26.26,0,1,1-.31.37,1,1,0,0,1,0-.24c0-.08-.05-.18-.13-.17l-.08,0a.27.27,0,0,1-.27-.06A.77.77,0,0,0,71,45.2c-.09,0-.22,0-.2.14,0-.1-.12-.16-.22-.17s-.2,0-.29,0a.41.41,0,0,0-.22,0c-.07,0-.06.16,0,.15l-.31.06a3.63,3.63,0,0,1,.1.45.55.55,0,0,0-.29-.13.52.52,0,0,0-.18-.18.15.15,0,0,0-.22.07.37.37,0,0,0-.22-.12c-.09,0-.17.1-.12.17l-.19-.14c-.08.07-.2.1-.28.16l.17-.63-.58-.51v-.16a5.73,5.73,0,0,1-1-.82,5.27,5.27,0,0,1-1-.06.35.35,0,0,1-.21-.07.45.45,0,0,1-.1-.14l-.2-.39c-.08-.08-.21,0-.28.09s-.18.18-.28.12l.17.26a.65.65,0,0,1-.49-.19c-.05,0-.17,0-.2-.1v-.33L62.71,41l-4,0-.48.77h-.59l-.24-.28-1.36-.07-1.77,1.44-.08.15-.4.11-1.24-.52-.51.26L52,41.63c-.15-.56-.35-.67-.45-.7l-.12-.84s0,.6,0,.86c-.4.13-.47.77-.47.77l-.08,1.36c-.09,0-.18.05-.21.14a2.7,2.7,0,0,0,0,.28c-.06.22-.3.35-.51.44-.06,0-.07-.1,0-.17a.41.41,0,0,0,0-.18c0-.12-.12-.27,0-.33a.24.24,0,0,1-.22-.33.57.57,0,0,0-.26,0,.2.2,0,0,0-.17.18c0,.06,0,.12,0,.18s-.09.17-.06.25.27.09.3.22a2,2,0,0,1-.47.15,1,1,0,0,1-.11-.43A2.57,2.57,0,0,0,49,42.9a1,1,0,0,0-.89.11c0-.11-.21-.13-.29,0a.55.55,0,0,0-.14.33.51.51,0,0,1-.15.31.26.26,0,0,1-.38-.1.36.36,0,0,0,0-.09c0-.07-.14-.07-.22,0l-.16.08a1.07,1.07,0,0,0-.28.79,10.82,10.82,0,0,1,0-1.61.79.79,0,0,0-.37-.2,3.84,3.84,0,0,0-.09-1.35,1.28,1.28,0,0,1-.06-.33c0-.17.1-.35,0-.49a.61.61,0,0,0-.13.22l0-1.27a.26.26,0,0,0-.07-.21.22.22,0,0,1-.13.21l0-1.36a.22.22,0,0,0-.07-.19,1,1,0,0,0-.07.77.32.32,0,0,1,0,.17s-.09.09-.11.15,0,.13.07.2a.2.2,0,0,1-.17.27.1.1,0,0,1,0,.17v.31l0,0a.05.05,0,0,0,0,.08h0V40l-1.88-3.23L43,34.41a.12.12,0,0,0,0-.08.12.12,0,0,0-.06-.1l0-.23,0,.23a.11.11,0,0,0-.09.1.1.1,0,0,0,.07.09l-.14,1.49a.06.06,0,0,0-.06,0,.08.08,0,0,0,0,.09h0l0,.3-.5-1.07L42,33.64s.05,0,.05-.07A.07.07,0,0,0,42,33.5l0-.3v.3a.08.08,0,0,0-.05.07.07.07,0,0,0,0,.07l-.05,1.13h0a.07.07,0,0,0,0,.09.74.74,0,0,1-.3-.61v0s0,0,.05,0a.05.05,0,0,0,0-.08,0,0,0,0,0-.05,0c0-.15,0-.3,0-.45l0-.88v0l0-.12,0-.33a.11.11,0,0,0,.1-.1.11.11,0,0,0-.1-.11h0l0-.25s0,.11,0,.25a.1.1,0,0,0-.06.1.09.09,0,0,0,.05.08c0,.07,0,.15,0,.22h0a1.24,1.24,0,0,0-.22-.34l0-.78a.12.12,0,0,0,.1-.11.11.11,0,0,0-.11-.11v-.22a.08.08,0,0,0,.06-.08.1.1,0,0,0-.06-.09v-.13a0,0,0,0,0,0-.05.06.06,0,0,0,0-.06v0a.06.06,0,0,0-.06.06.05.05,0,0,0,0,.05v.13h0a.1.1,0,0,0-.1.1.09.09,0,0,0,.09.09v.23a.11.11,0,0,0,0,.18l0,.72c-.06.08-.13.15-.19.22l-.05-.42a.08.08,0,0,0,0-.05.05.05,0,0,0,0-.05l0-.18v.18a.05.05,0,0,0,0,.05.05.05,0,0,0,0,.06l0,.59a1.39,1.39,0,0,0-.13.67,5.11,5.11,0,0,1,0,.78h-.2l-.1-.79a.05.05,0,0,0,0-.06.06.06,0,0,0-.05-.06l0-.19s0,.08,0,.19a.07.07,0,0,0,0,.06.05.05,0,0,0,0,.06c0,.26,0,.6-.06.77l-4.21-.39,0-.22c-.11,0-.15-.14-.15-.25,0-.28.13-.55.14-.83s0-.28,0-.43a.46.46,0,0,1,.2-.36l-.35-.13,0-.72a.36.36,0,0,1,0-.21c0-.08.13-.15.11-.24s-.13-.11-.21-.11c0-.26,0-.51,0-.76a.14.14,0,0,0,.06-.12.16.16,0,0,0-.07-.13v0a.34.34,0,0,0,0-.17.12.12,0,0,0-.15-.05c0,.08,0,.17,0,.25a.19.19,0,0,0-.09.15.16.16,0,0,0,.09.15,3.07,3.07,0,0,1-.07.53c-.09,0-.17,0-.25-.09a.33.33,0,0,0-.14,0V29.3l-.09-.37a.17.17,0,0,1,0-.1.7.7,0,0,1,0-.14c0-.2-.12-.41,0-.6a.12.12,0,0,0,0-.18.42.42,0,0,1,0-.5c-.08,0-.1-.13-.1-.21s0-.35,0-.52a.1.1,0,0,0-.12.05.39.39,0,0,0,0,.15v.28c0,.08,0,.2-.11.18a.13.13,0,0,1,0,.19l-.74-12.14-.62,11.79a0,0,0,0,1,0,.05s0,0,0,0a.06.06,0,0,0,0,0,.28.28,0,0,0,0,.13.1.1,0,0,1,0,.12l-.05.14a.12.12,0,0,1-.11,0,.53.53,0,0,1-.06-.1L33,27.44a.19.19,0,0,1,0-.08.29.29,0,0,1,0-.16l0-.36a.66.66,0,0,0,0-.14.61.61,0,0,1,0-.11s0-.07,0-.11,0-.08-.06-.07,0,0,0,.06l0,.17a.11.11,0,0,0-.08.1.1.1,0,0,0,.07.1c0,.3,0,.6,0,.89V28a.69.69,0,0,1,0,.2,1,1,0,0,0,0,.3,0,0,0,0,1,0,0s0,0,0,0a.12.12,0,0,0,0,.13.35.35,0,0,0,.08.13v.81h-.12l0-.08a.22.22,0,0,1-.3,0,.34.34,0,0,1-.09-.3.33.33,0,0,0,0-.17l0,0a.31.31,0,0,1,0-.1.12.12,0,0,0,.1-.12.12.12,0,0,0-.11-.12.2.2,0,0,1,0-.07,1.13,1.13,0,0,1,0-.18.18.18,0,0,0,0-.16,1,1,0,0,0,0,.42.12.12,0,0,0-.07.11.12.12,0,0,0,.09.12s0,.07,0,.1a.4.4,0,0,1,0,.11.64.64,0,0,1-.1.13c0,.07,0,.15,0,.21s-.07.09-.05.14l0,0s0,0,0,.06,0,.13-.1.15-.09,0-.13,0a.08.08,0,0,0,0,.13c.06.06.17,0,.23,0s.06.1.06.15a4.76,4.76,0,0,1-.06.66.06.06,0,0,1-.07,0l-.11.07s0,0,0,0a.09.09,0,0,0,0,.07.37.37,0,0,1,0,.18s0,0,0,.08l0,0c0,.05-.08.08-.06.12s0,0,0,0,0,0,0,0a.52.52,0,0,0,.05.24l0,1h-1l0-.69-.13.71-.6.65A3.15,3.15,0,0,1,30,33a.44.44,0,0,0,0-.16.75.75,0,0,0-.06-.13.56.56,0,0,1,0-.13.34.34,0,0,0-.07-.22,7.11,7.11,0,0,1,0-1.53c0-.08,0-.16.1-.19s.09,0,.1-.07l-.11,0,0,0c0-.07-.14,0-.19-.1s0-.11,0-.17-.06-.17,0-.26.06-.12,0-.17,0,0,0,0a.07.07,0,0,1,0-.06,1.27,1.27,0,0,1,0-.28.31.31,0,0,0-.07-.27.26.26,0,0,0,0,.21,1,1,0,0,1,0,.17.56.56,0,0,1-.08.2.81.81,0,0,0,0,.16V30a2.71,2.71,0,0,0,0,.29s0,.08,0,.09h0a.15.15,0,0,0-.11.16s.06,0,.08.07l-.08,1.57a.39.39,0,0,0-.47,0L29,29.13a0,0,0,0,0,.05,0,.08.08,0,0,0,0-.05.43.43,0,0,0,0,0,1.48,1.48,0,0,1,0-.21.3.3,0,0,0,0-.21.09.09,0,0,1,0-.06s0-.05.05-.08,0-.08,0-.11l-.11,0s0,0,0,0,0,0,0,0,0-.2,0-.3,0-.17,0-.25a1.37,1.37,0,0,1,0-.45v-.09a.09.09,0,0,0-.06-.06c0,.1-.05.18-.06.28s.08.28.05.42a.29.29,0,0,1-.11.16,0,0,0,0,0,0,0s0,0,0,0a.53.53,0,0,1,0,.25s0,0-.05,0,0,0,0,0l0-.25a.47.47,0,0,1,0-.17.59.59,0,0,1,0-.23s0-.06,0-.09a.25.25,0,0,0,0-.07.28.28,0,0,1,0-.09.11.11,0,0,0-.08-.08h0a.07.07,0,0,0,0,.05s0,.05,0,.08a.05.05,0,0,1,0,0s0,0,0,0a.45.45,0,0,1,0,.11h-.11a.06.06,0,0,1,0,0s0-.08,0-.11L27.91,16l-.56,11.59a.09.09,0,0,1,0,.06s0,0-.06,0a.06.06,0,0,1,0,0,.17.17,0,0,0-.13-.16.27.27,0,0,1-.07.27,1.87,1.87,0,0,1,0-.53s0-.05,0-.05h0a.19.19,0,0,0-.12.14.41.41,0,0,0,0,.19.37.37,0,0,0,0,.15c0,.07.12.13.12.2a.54.54,0,0,1,0,.11c0,.12,0,.25,0,.37s-.23.23-.35.32a.33.33,0,0,0-.13.26.1.1,0,0,0,0,.07s.12,0,.17,0l-.05,1.22s0,.11-.07.11a.41.41,0,0,1,0-.29c0-.1,0-.22-.11-.24a1.16,1.16,0,0,0-.08.42s0,.08,0,.09a.05.05,0,0,1-.07-.05s0-.07,0-.11a.42.42,0,0,0,0-.22l-.1-.49a1.23,1.23,0,0,1,0-.33c0-.09,0-.18,0-.25s0,.06,0,.1,0,.08,0,.11a.74.74,0,0,1,0,.14.76.76,0,0,0,0,.15c0,.08-.06.14-.07.21a.78.78,0,0,0,0,.22c0,.17-.08.33-.05.49a.38.38,0,0,0-.21,0c-.06,0-.09.12,0,.16a.05.05,0,0,0,.05,0l.27.07s-.1,0-.11.08,0,0,0,0,0,.11,0,.17a.56.56,0,0,0,.12.54c-.09.11-.17.26-.26.37v2.72c-.07,0-.06.12-.05.19a.3.3,0,0,1-.07.33l0,0s0,.1,0,.15a.17.17,0,0,1,0,.12s-.06.07-.05.11l0,0a.19.19,0,0,1-.13.27.75.75,0,0,1,0,.53c-.05,0-.05-.1-.11-.12s-.07,0-.08.06a.4.4,0,0,0,0,.11,2,2,0,0,0,.11.35c0,.08.05.21,0,.26l-.95.07.07-1.71h-.07l-.08,1.52-.17.42L22.26,40.3l-.69.59.24,0-.06.86-.69.89L21,47.5a.52.52,0,0,1-.21-.18l-.5-.62a.1.1,0,0,0,0-.05h-.07l-.69,0c-.69.52-1.38,1-2.08,1.52a1.48,1.48,0,0,1-.27.16.79.79,0,0,1,.28-.39l-.11,0a.11.11,0,0,1-.08-.08.19.19,0,0,1,0-.08.33.33,0,0,0,0-.24l-.21,0a.18.18,0,0,1,0-.22,1.37,1.37,0,0,0,.16-.18,0,0,0,0,0,0,0s0,0,0,0a.23.23,0,0,0-.19-.07.44.44,0,0,1-.2,0s0-.09,0-.12a.43.43,0,0,0,.09-.1.12.12,0,0,0-.13-.15.16.16,0,0,1-.15.19.15.15,0,0,1-.14-.19.32.32,0,0,0,.23-.09.2.2,0,0,0,0-.24.15.15,0,0,0-.22,0s0,.07-.07.09-.11,0-.13.09a.34.34,0,0,0,0,.1.64.64,0,0,1-.06.18,2.45,2.45,0,0,0-.08.39.21.21,0,0,1-.07.13l.11,0s-.06.08-.1,0a.27.27,0,0,1-.07-.13.12.12,0,0,0-.1-.1.25.25,0,0,0,0,.24.55.55,0,0,0,.19.26c-.08,0-.19.06-.17.15s0,0,.07.08a.38.38,0,0,1,.11.26.21.21,0,0,0-.2-.09.22.22,0,0,0-.16.15.34.34,0,0,0,0,.22.21.21,0,0,0,.07.13c.07.06.23,0,.24.14a5.82,5.82,0,0,0-1.18,0c-.12,0-.26,0-.31-.09s0-.06,0-.08a.14.14,0,0,0-.17-.06.37.37,0,0,0-.16.09.2.2,0,0,1,0,.07l.14,0c.05.05,0,.15-.07.18a.34.34,0,0,1-.22,0,.57.57,0,0,0-.22-.07H13.9a.27.27,0,0,1-.14,0l-.21-.11a.7.7,0,0,0-.23-.11c-.1,0-.21,0-.31,0a.31.31,0,0,1-.26-.15,8,8,0,0,0-2.07,0s-.07,0-.11,0a.11.11,0,0,1-.09-.07s0,0,0-.07a.1.1,0,0,0-.11-.1.4.4,0,0,0-.43-.06l0,.2a.07.07,0,0,1,0,0,.1.1,0,0,1-.07,0A8.79,8.79,0,0,0,8.27,48a.17.17,0,0,1,0-.14s0-.1-.06-.11,0,0-.07,0a.06.06,0,0,1,0,0s-.07,0-.11,0l-.27,0a.83.83,0,0,1,0,.22h-.1s0,0,0,0c-.48,0-1.37.83-1.78.82v6.61c0,.53,70.7.19,70.7.19ZM32.7,31.49a.38.38,0,0,1-.12.1.14.14,0,0,1-.14,0,.32.32,0,0,1,0-.09l0-.13a.43.43,0,0,1,0-.16.21.21,0,0,0,0-.08l0,0c0-.06,0-.13,0-.19l0-.05s0-.07,0-.1v-.48a.65.65,0,0,1,0-.24.08.08,0,0,1,0-.06c0-.05.13,0,.2,0a.28.28,0,0,0,.18,0l0,1.47A.12.12,0,0,1,32.7,31.49Zm2.88-.39a.67.67,0,0,0-.06.12c0,.07,0,.15,0,.23s-.09.17-.15.11l0-.09-.07-.09c-.07.07-.22.22-.22.31l0-1.79.19.07c.16.08.2.29.21.48l0,.44A.49.49,0,0,1,35.58,31.1Zm6.31,3.78h0Z"/><path class="cls-6" d="M33.94,15.38a.29.29,0,1,0-.29-.29A.29.29,0,0,0,33.94,15.38Z"/><polygon class="cls-6" points="34.01 14.18 34.21 14.18 34.21 14.11 34.01 14.11 34.01 13.6 33.94 13.6 33.94 14.11 33.74 14.11 33.74 14.18 33.94 14.18 33.94 14.8 34.01 14.8 34.01 14.18"/><path class="cls-6" d="M27.88,15.54a.25.25,0,0,0-.18.23.23.23,0,0,0,.23.23.23.23,0,0,0,.24-.23.24.24,0,0,0-.22-.24v-.59h.2v-.07H28v-.51h-.07v.51h-.2v.07h.2Z"/><path class="cls-6" d="M42.31,35.34a.07.07,0,0,0,.09,0,.06.06,0,0,0,0-.09.05.05,0,0,0-.08,0A.06.06,0,0,0,42.31,35.34Z"/><path class="cls-6" d="M42.4,35.51a.05.05,0,0,0,.08,0,.06.06,0,0,0,0-.08.06.06,0,0,0-.09,0A.05.05,0,0,0,42.4,35.51Z"/><path class="cls-6" d="M42.49,35.69a.05.05,0,0,0,.08,0,.06.06,0,0,0,0-.08s-.06,0-.09,0A.05.05,0,0,0,42.49,35.69Z"/><path class="cls-6" d="M42.56,35.86a.06.06,0,0,0,.09,0,.05.05,0,0,0,0-.08.06.06,0,0,0-.08,0A.07.07,0,0,0,42.56,35.86Z"/><path class="cls-6" d="M42.29,35.19a.05.05,0,0,0,0-.08.06.06,0,0,0-.08,0s0,.06,0,.09A.05.05,0,0,0,42.29,35.19Z"/><path class="cls-6" d="M43.37,36.82a.07.07,0,0,0,.09,0,.06.06,0,0,0-.09-.08A.06.06,0,0,0,43.37,36.82Z"/><path class="cls-6" d="M43.46,37a.06.06,0,0,0,.08,0,.08.08,0,0,0,0-.09.06.06,0,0,0-.09,0A.05.05,0,0,0,43.46,37Z"/><path class="cls-6" d="M43.55,37.18a.05.05,0,0,0,.08,0,.05.05,0,0,0,0-.08.06.06,0,0,0-.08,0S43.53,37.15,43.55,37.18Z"/><path class="cls-6" d="M43.62,37.34a.07.07,0,0,0,.09,0,.06.06,0,0,0,0-.09.05.05,0,0,0-.08,0A.06.06,0,0,0,43.62,37.34Z"/><path class="cls-6" d="M43.36,36.68a.06.06,0,0,0,0-.09.05.05,0,0,0-.08,0,.06.06,0,0,0,0,.08A.07.07,0,0,0,43.36,36.68Z"/><path class="cls-6" d="M43.89,37.65a.06.06,0,0,0,.08,0s0-.06,0-.09a.05.05,0,0,0-.08,0A.06.06,0,0,0,43.89,37.65Z"/><path class="cls-6" d="M44,37.82a.06.06,0,0,0,.08,0,.06.06,0,0,0,0-.09.06.06,0,1,0-.07.09Z"/><path class="cls-6" d="M44.07,38a.05.05,0,0,0,.08,0,.06.06,0,0,0,0-.08.08.08,0,0,0-.09,0A.06.06,0,0,0,44.07,38Z"/><path class="cls-6" d="M44.14,38.17a.06.06,0,0,0,.09,0,.06.06,0,1,0-.09-.07A.06.06,0,0,0,44.14,38.17Z"/><path class="cls-6" d="M43.87,37.5a.05.05,0,1,0-.08,0A.05.05,0,0,0,43.87,37.5Z"/><path class="cls-6" d="M44.34,38.49a.06.06,0,0,0,.09,0,.06.06,0,1,0-.09-.07A.06.06,0,0,0,44.34,38.49Z"/><path class="cls-6" d="M44.43,38.66a.05.05,0,0,0,.08,0,.06.06,0,0,0,0-.08.08.08,0,0,0-.09,0A.06.06,0,0,0,44.43,38.66Z"/><path class="cls-6" d="M44.52,38.84a.06.06,0,0,0,.08,0s0-.06,0-.09a.05.05,0,0,0-.08,0A.06.06,0,0,0,44.52,38.84Z"/><path class="cls-6" d="M44.6,39a.06.06,0,0,0,.07-.09.06.06,0,0,0-.08,0A.06.06,0,0,0,44.6,39Z"/><path class="cls-6" d="M44.24,38.35a.06.06,0,0,0,.09,0,.05.05,0,0,0,0-.08.06.06,0,0,0-.08,0A.07.07,0,0,0,44.24,38.35Z"/><path class="cls-6" d="M44.85,39.27a.06.06,0,0,0,.08,0s0-.06,0-.09a.06.06,0,0,0-.08.09Z"/><path class="cls-6" d="M44.93,39.44a.07.07,0,0,0,.09,0,.06.06,0,0,0,0-.09.05.05,0,0,0-.08,0A.06.06,0,0,0,44.93,39.44Z"/><path class="cls-6" d="M45,39.63a.05.05,0,0,0,.08,0,.06.06,0,0,0,0-.08.07.07,0,0,0-.09,0A.06.06,0,0,0,45,39.63Z"/><path class="cls-6" d="M44.83,39.12a.06.06,0,0,0,0-.08.06.06,0,0,0-.09,0,.06.06,0,1,0,.09.07Z"/><path class="cls-6" d="M41.61,34.35a.07.07,0,0,0,.09,0,.06.06,0,0,0,0-.09.05.05,0,0,0-.08,0A.06.06,0,0,0,41.61,34.35Z"/><path class="cls-6" d="M41.7,34.52a.06.06,0,0,0,.08,0,.07.07,0,0,0,0-.09.06.06,0,0,0-.09,0A.05.05,0,0,0,41.7,34.52Z"/><path class="cls-6" d="M41.79,34.71a.06.06,0,0,0,.08-.09.06.06,0,0,0-.08,0A.07.07,0,0,0,41.79,34.71Z"/><path class="cls-6" d="M45.36,37.54a.11.11,0,1,0-.11-.11A.11.11,0,0,0,45.36,37.54Z"/><path class="cls-7" d="M36.37,49c-.1-.11-.09-.15-.08-.3s0-.07,0-.07v-.22l.05,0v-.1h0v-.37h0a.25.25,0,0,0-.06-.17h0a1.07,1.07,0,0,1-.17-.65c0-.24,0-.55,0-.79a.09.09,0,0,0,.06-.08.08.08,0,0,0-.07-.08v-.24a0,0,0,0,0,0,0s0,0,0,0a0,0,0,0,0,0,0s0,0,0,0h0v.24a.08.08,0,0,0,0,.16c0,.25,0,.55,0,.79a1.11,1.11,0,0,1-.18.66h0a.34.34,0,0,0-.05.17h0v.37h0v.1l.06,0,0,.22s0,.07,0,.07,0,.19-.08.3a.47.47,0,0,0-.1.32l0,1.83h.89l0-1.83A.5.5,0,0,0,36.37,49Z"/><path class="cls-8" d="M35.57,49.8a.18.18,0,0,0,.06-.13.24.24,0,0,0-.05-.14h0a2.45,2.45,0,0,1-.11-.43V49a0,0,0,0,0,0,0s0,0,0,0v-.07h0v-.07h-.1v0s0,0,0,0h0l0,0h.06v.07s0,0,0,0a0,0,0,0,0,0,0v.14a2.45,2.45,0,0,1-.11.43h0a.19.19,0,0,0,0,.13.18.18,0,0,0,.06.13h-.06v.05h0v.37l.29.45v-.82h0V49.8Z"/><path class="cls-8" d="M36.67,49.8a.15.15,0,0,0,.06-.13.19.19,0,0,0,0-.14h0a1.43,1.43,0,0,1-.11-.43V49l0,0a0,0,0,0,0,0,0v-.07h0v-.07h-.1v0h0a0,0,0,0,0,0,0h.06v.07a0,0,0,0,0,0,0l0,0v.14a1.43,1.43,0,0,1-.11.43h0a.15.15,0,0,0,0,.13.15.15,0,0,0,.06.13h-.06v.05h0v.66l.28-.29v-.37h0V49.8Z"/><path class="cls-9" d="M33.67,50.93s1.61-1.53,1.61-1.53L36.88,51l-.2,5.57-2.48-.09Z"/><path class="cls-10" d="M31,47.9a9.19,9.19,0,0,0,1.33.42l2.08,2.84-.23,6.57-2.48.51Z"/><polyline class="cls-11" points="28.74 42.85 29.94 42.55 31.59 45.13 31.68 58.24 29.97 59.09 29.97 43.99"/><path class="cls-12" d="M36.19,50.34a11.11,11.11,0,0,0,1.42-.85s-.7-.25-.67-.48,0-.9,0-.9l1.22-.41.36,9-1.88-.07Z"/><path class="cls-13" d="M27.59,41A36.46,36.46,0,0,1,30,44.1c0,.22-.07,15-.07,15l-2.53,0Z"/><path class="cls-14" d="M24.1,36.11c.19,1.53,4,4.79,4,4.79s-.5,18.22-.64,18.22-3.79.79-3.64.58S24.1,36.11,24.1,36.11Z"/><path class="cls-15" d="M41.3,43.75,40,44.5h-2.2v1.56l3.61-.78V43.76Z"/><path class="cls-16" d="M45.23,45.6l-.18-1.46-3.65-.38v1.52h0Z"/><path class="cls-17" d="M37.79,46.94l.25,1,3.36-.61v-1.1Z"/><path class="cls-18" d="M41.51,46.2l-.11,0v1.1l.11,0,3.72.35V46.59Z"/><path class="cls-19" d="M41.49,47.3l-4,.63.25,1.14.32.39,0,5.77a26.87,26.87,0,0,0,3.68.31A67.45,67.45,0,0,0,41.49,47.3Z"/><path class="cls-20" d="M38.15,55.23l0,3.19,3.68.56c0-1.15,0-2.3,0-3.44A26.87,26.87,0,0,1,38.15,55.23Z"/><path class="cls-21" d="M45.23,47.65l-3.72-.35h0a69.78,69.78,0,0,1,.34,8.62c1.29-.15,2.57-.16,3.86-.2C45.51,52.43,45.23,47.65,45.23,47.65Z"/><path class="cls-20" d="M41.83,55.92q0,1.53,0,3.06h.07l3.9-.25s0-1.33-.14-3C44.4,55.76,43.12,55.77,41.83,55.92Z"/><path class="cls-22" d="M37.79,46.06v.88l3.61-.72v-.94Z"/><path class="cls-23" d="M41.42,45.28h0v.94l.11,0,3.72.39v-1Z"/><path class="cls-24" d="M39.18,54.35a.14.14,0,0,0-.1-.11.43.43,0,0,0-.16,0l-.09,0s0,.06,0,.08l0,0a1.54,1.54,0,0,1,.19.08s.1.11.07.17a.17.17,0,0,1-.16.08.16.16,0,0,1-.12,0,.07.07,0,0,1,0-.11"/><path class="cls-24" d="M39.26,54.79l.06-.68a5.28,5.28,0,0,1,.27.53.57.57,0,0,1,.06.25v-.08"/><path class="cls-24" d="M39.6,54.18l.36.46a2.24,2.24,0,0,0,.06-.52c0-.12-.14-.19-.26-.22a.81.81,0,0,0-.38,0,.39.39,0,0,0-.3.2s0,.09,0,.08"/><path class="cls-24" d="M40.43,54.63v0a1.53,1.53,0,0,0,0-.37l0-.06a.13.13,0,0,0-.12,0,.3.3,0,0,0-.18.06.25.25,0,0,0,0,.34C40.17,54.65,40.34,54.72,40.43,54.63Z"/><path class="cls-24" d="M40.53,54.18c0,.08.13.18.23.16s.13-.12.16-.21a.75.75,0,0,0-.19.61"/><path class="cls-25" d="M39.28,50.45c.39-.4-.69-1.91.55-2.1l-.31,0a.81.81,0,0,0-.31,0,.27.27,0,0,0-.2.22c0,.08,0,.19,0,.23a.5.5,0,0,1,.2.23c0,.1,0,.23-.15.21a.35.35,0,0,1,.15.34c-.06,0-.11,0-.15.08s-.15,0-.13,0l0,.17c0-.08-.17-.07-.22,0s.05.43,0,.6v.28a1.69,1.69,0,0,1,1.05-.24Z"/><path class="cls-26" d="M40.71,49.46l0,0Z"/><path class="cls-25" d="M38.72,51.39a2.31,2.31,0,0,1,.05.64,2.7,2.7,0,0,1-.08.41l0,.15a.23.23,0,0,1,0,.1c-.05,0-.12,0-.15.08a.1.1,0,0,0,0,.15.33.33,0,0,0,.17,0,3.45,3.45,0,0,1,.54.11C39.27,52.29,39.67,51.73,38.72,51.39Z"/><path class="cls-25" d="M38.66,50.88l0,.33c.15-.09.3-.23.45-.33Z"/><path class="cls-26" d="M41,52.71a1.66,1.66,0,0,0-.13-.27.92.92,0,0,1-.05-.37l0-1.93a1.11,1.11,0,0,0-.11-.6s0,0,0-.07h0a1,1,0,0,0-.23-.13l0,.15a.36.36,0,0,1,0-.47c.06-.11.14-.24.07-.33s0,0-.05-.06.13-.17.07-.24l-.64,0c-1.24.19-.16,1.7-.55,2.1h.42a1.69,1.69,0,0,0-1.05.24,1.28,1.28,0,0,0,0,.19h.48c.19-.13.37-.19.56,0h-.56c-.15.1-.3.24-.45.33v0s0,.1,0,.15c1,.34.55.9.48,1.68l.1,0a.51.51,0,0,1,.48,0c0-.08.1-.12.18-.12h.93C41,52.93,41,52.81,41,52.71Z"/><path class="cls-26" d="M39.14,50.88h.56C39.51,50.69,39.33,50.75,39.14,50.88Z"/><path class="cls-27" d="M39.37,49l.09.89.25,0a1.49,1.49,0,0,1,.35-1Z"/><path class="cls-28" d="M40.11,48.82h0a1.49,1.49,0,0,0-.35,1,1.76,1.76,0,0,1,.53,0A7.72,7.72,0,0,0,40.11,48.82Z"/><path class="cls-28" d="M39,51.68a3.44,3.44,0,0,1,0,.65l.48-.07v-1a1.3,1.3,0,0,0-.1-.18A1.26,1.26,0,0,0,39,51.68Z"/><path class="cls-27" d="M39,51.3s0,.18,0,.38a1.26,1.26,0,0,1,.36-.56C39.15,50.85,39,51.3,39,51.3Z"/><path class="cls-27" d="M40.05,51.35V51.3c-.25-.6-.48,0-.48,0a7.07,7.07,0,0,1,0,1l.21,0C39.72,52,39.65,51.59,40.05,51.35Z"/><path class="cls-28" d="M40.05,51.35c-.4.24-.33.6-.27.95l.27,0Z"/><path class="cls-28" d="M40.12,52.33l.48-.07v-.93a.61.61,0,0,0-.46.31A3.13,3.13,0,0,1,40.12,52.33Z"/><path class="cls-27" d="M40.6,51.33v0c-.24-.6-.48,0-.48,0h0s0,.16,0,.34A.61.61,0,0,1,40.6,51.33Z"/><path class="cls-25" d="M43.15,50.45c.4-.4-.69-1.91.56-2.1l-.31,0a.85.85,0,0,0-.32,0,.27.27,0,0,0-.2.22c0,.08,0,.19-.05.23A.5.5,0,0,1,43,49c0,.1,0,.23-.14.21a.36.36,0,0,1,.14.34c-.05,0-.1,0-.15.08s-.15,0-.12,0l0,.17c0-.08-.17-.07-.22,0s0,.43,0,.6a2.62,2.62,0,0,0,0,.28,1.69,1.69,0,0,1,1-.24Z"/><path class="cls-25" d="M42.6,51.39a2.76,2.76,0,0,1,0,.64,2.71,2.71,0,0,1-.09.41l0,.15a.16.16,0,0,1-.05.1s-.11,0-.15.08a.11.11,0,0,0,0,.15.35.35,0,0,0,.17,0,3,3,0,0,1,.54.11C43.14,52.29,43.55,51.73,42.6,51.39Z"/><path class="cls-25" d="M42.53,50.88c0,.11,0,.22,0,.33.15-.09.3-.23.44-.33Z"/><path class="cls-26" d="M44.89,52.71c0-.1-.09-.17-.13-.27a.92.92,0,0,1,0-.37l0-1.93a1.12,1.12,0,0,0-.12-.6.09.09,0,0,1,0-.07h0a.86.86,0,0,0-.23-.13l-.05.15a.36.36,0,0,1,0-.47c.06-.11.14-.24.06-.33s0,0,0-.06.13-.17.07-.24l-.64,0c-1.25.19-.16,1.7-.56,2.1h.43a1.69,1.69,0,0,0-1,.24v.19H43c.19-.13.38-.19.57,0H43c-.14.1-.29.24-.44.33v0l0,.15c.95.34.54.9.47,1.68l.11,0a.49.49,0,0,1,.47,0c0-.08.1-.12.19-.12h.92C44.86,52.93,44.91,52.81,44.89,52.71Z"/><path class="cls-26" d="M43,50.88h.57C43.39,50.69,43.2,50.75,43,50.88Z"/><path class="cls-27" d="M43.24,49l.09.89.26,0a1.49,1.49,0,0,1,.34-1Z"/><path class="cls-28" d="M44,48.82h0a1.49,1.49,0,0,0-.34,1,1.69,1.69,0,0,1,.52,0A7.72,7.72,0,0,0,44,48.82Z"/><path class="cls-28" d="M42.87,51.68a3.83,3.83,0,0,1,0,.65l.47-.07v-1a.5.5,0,0,0-.1-.18A1.35,1.35,0,0,0,42.87,51.68Z"/><path class="cls-27" d="M42.86,51.3s0,.18,0,.38a1.35,1.35,0,0,1,.36-.56C43,50.85,42.86,51.3,42.86,51.3Z"/><path class="cls-27" d="M43.92,51.35V51.3c-.24-.6-.48,0-.48,0a7.07,7.07,0,0,1,0,1l.22,0C43.59,52,43.53,51.59,43.92,51.35Z"/><path class="cls-28" d="M43.92,51.35c-.39.24-.33.6-.26.95l.26,0Z"/><path class="cls-28" d="M44,52.33l.48-.07v-.93a.65.65,0,0,0-.47.31A3.38,3.38,0,0,1,44,52.33Z"/><path class="cls-27" d="M44.48,51.33v0c-.25-.6-.48,0-.48,0h0s0,.16,0,.34A.65.65,0,0,1,44.48,51.33Z"/><polygon class="cls-29" points="42.38 44.43 43.81 44.57 43.88 45.48 42.38 45.36 42.38 44.43"/><path class="cls-30" d="M39.18,45.21h.56l-.05.27-.43.19Z"/><polygon class="cls-30" points="40.36 45.1 40.7 44.91 40.72 45.28 40.36 45.28 40.36 45.1"/><polygon class="cls-30" points="39.31 46.75 39.26 47.38 40.22 47.3 40.22 46.59 39.31 46.75"/><path class="cls-29" d="M42.38,46.45h1.5v.78H42.45Z"/><path class="cls-31" d="M42.64,53.25c.09,0,1.72,0,1.72,0l.2,3.7s-2,.06-1.92,0S42.64,53.25,42.64,53.25Z"/><path class="cls-32" d="M74.48,42l-.09-.18c-.45-1-1.14-2.11-2.22-2.08-.45,0-1.11.11-1.17-.34,0-.29.27-.57.17-.84s-.31-.29-.31-.49.17-.29.25-.45c.29-.61-1-1-1-1.63a4.34,4.34,0,0,0,.07-.52c0-.3-.35-.46-.57-.67l0,0c-.14.54-.28,1.09-.43,1.63a.7.7,0,0,0-.64,1,2,2,0,0,0,.36.4,1.87,1.87,0,0,1,.51,1.38l-.62.43c.13.28.71.07.8.37s-1.15.62-1,1a7.76,7.76,0,0,1,.57,1.75A8.53,8.53,0,0,1,74.48,42Z"/><path class="cls-33" d="M74.61,42.65a1.3,1.3,0,0,0-.13-.66,8.53,8.53,0,0,0-5.3.68,3.83,3.83,0,0,0,.71,1.54A7.86,7.86,0,0,0,72.25,46l2.37,1.35a28.81,28.81,0,0,1-.6-4.12A.56.56,0,0,0,74.61,42.65Z"/><path class="cls-34" d="M64.4,36.87c.48,1,13.07,11.68,13.07,11.68l.34,13.32-8.65,1.37Z"/><path class="cls-35" d="M59.2,37a21.74,21.74,0,0,0-7.78,1.87c-1.68.72-3.36,1.62-5.17,2.43v1.12L45,44.24l-.72,19.27,3.1.49C46.93,53.89,48,40.28,59.2,37Z"/><path class="cls-36" d="M61.26,64.48l7.9-1.37L66,40.21,64.43,36.8c-1.75,0-3.5,0-5.23.16C48,40.28,46.93,53.89,47.34,64l6.09,1Z"/><path class="cls-32" d="M59.11,34.78l-.6-3.12.6-1.05-.76-.73-1.29-5.32L56.7,27.3v3l-.77.32s-.32.88,0,1.05.77,1,.77,1l-.91,1.62Z"/><path class="cls-37" d="M76.55,50.16l-7.39-2.29-1.68,3,.08.61c2.54-.47,6.44-.48,9-.81Z"/><path class="cls-38" d="M67.56,51.47l1.6,11.64,6.44-.89,1-11.56C74,51,70.1,51,67.56,51.47Z"/><path class="cls-37" d="M69.47,34.61a.69.69,0,0,0,.11.13l0-.16A.19.19,0,0,1,69.47,34.61Z"/><path class="cls-39" d="M46.77,45.88c.06-1.29.4-2.81,1.61-3.26a17.64,17.64,0,0,1,.86,6.91l-.07,7.94a6.71,6.71,0,0,1-1.8-.07c-.59-.26-.43-.34-.4-1.07.05-1.18,0-2.36,0-3.54C46.86,50.48,46.67,48.19,46.77,45.88Z"/><path class="cls-39" d="M50.08,45.27a7.72,7.72,0,0,1,1.2-4.34,4.22,4.22,0,0,1,.94,2.49,31.13,31.13,0,0,1,.17,3.49c0,3.46,0,6.93-.09,10.39-1.08,0-2.36.53-2.57-.65a21.18,21.18,0,0,1,0-3.9Q49.85,49,50.08,45.27Z"/><path class="cls-39" d="M54.16,49.25a23.44,23.44,0,0,1-.41-5.08A6,6,0,0,1,56,39.76a3.33,3.33,0,0,1,1.4,2,10.1,10.1,0,0,1,.21,2.52V56.88c-.58,0-2.11.21-2.6-.1s-.34-1.37-.36-2C54.57,52.92,54.4,51.08,54.16,49.25Z"/><path class="cls-39" d="M59.19,42A10.27,10.27,0,0,0,59,45.3q.36,6.06,1.26,12.07a11.16,11.16,0,0,0,3.16-.23.6.6,0,0,0,.59-.63c.79-4.68-1-9.36-1.39-14.09a7.2,7.2,0,0,0-.29-1.8C61.49,38.13,59.58,40.53,59.19,42Z"/><circle class="cls-37" cx="57.07" cy="24.13" r="0.37"/><circle class="cls-37" cx="68.33" cy="27.52" r="0.22"/><path class="cls-37" d="M64.43,36.8l0-.06-3.47-.89-7.18-4.19-6,8.38-1.46,1.13v.09c1.81-.81,3.49-1.71,5.17-2.43C55.56,36.87,60,36.83,64.43,36.8Z"/><path class="cls-40" d="M74.48,42l-.09-.18c-.45-1-1.14-2.11-2.22-2.08-.45,0-1.11.11-1.17-.34,0-.29.27-.57.17-.84s-.31-.29-.31-.49.17-.29.25-.45c.29-.61-1-1-1-1.63a4.34,4.34,0,0,0,.07-.52c0-.3-.35-.46-.57-.67l0,0c-.14.54-.28,1.09-.43,1.63a.7.7,0,0,0-.64,1,2,2,0,0,0,.36.4,1.87,1.87,0,0,1,.51,1.38l-.62.43c.13.28.71.07.8.37s-1.15.62-1,1c.31.59,1.24.83,1.39,1.4C71.79,41.44,72.73,41.71,74.48,42Z"/><path class="cls-40" d="M59.11,34.78l-.6-3.12.6-1.05-.76-.73-1.29-5.32L56.7,27.3v3l-.77.32s-.32.88,0,1.05.77,1,.77,1l-.3.53Z"/><path class="cls-40" d="M76.55,50.16l-7.39-2.29-1.68,3,.08.61c2.54-.47,6.44-.48,9-.81Z"/><path class="cls-40" d="M64.43,36.8l0-.06-3.47-.89-7.18-4.19-6,8.38-1.46,1.13v.09c1.81-.81,3.49-1.71,5.17-2.43C55.56,36.87,60,36.83,64.43,36.8Z"/><path class="cls-37" d="M68.33,27.73l1.29,7.06s.79.19.24-1.56S68.07,29.3,68.33,27.73Z"/><path class="cls-26" d="M44.58,49.46l0,0S44.59,49.46,44.58,49.46Z"/><path class="cls-41" d="M17.42,31.93a3.73,3.73,0,0,0-2.22-.45,3.11,3.11,0,0,0-3,1.21,5.48,5.48,0,0,1-1.35,1.36h-.22v7.28C11.87,37.31,13.8,33.8,17.42,31.93Z"/><path class="cls-14" d="M18.71,40.91a53.52,53.52,0,0,0,.84-6.86h0a5.31,5.31,0,0,1-1.36-1.36,3,3,0,0,0-.75-.76c-3.62,1.87-5.55,5.38-6.76,9.4v.36A24,24,0,0,1,18.71,40.91Z"/><path class="cls-42" d="M10.66,41.69v1.16a15.15,15.15,0,0,1,5.6-.88,2.39,2.39,0,0,1,.12-.22c.36-.55,1.31-.51,2.26-.47,0-.13,0-.25.07-.37A24,24,0,0,0,10.66,41.69Z"/><path class="cls-14" d="M10.66,42.85V59.23a37.39,37.39,0,0,0,4.83-8c-.49-3.27-.7-6.59.77-9.28A15.15,15.15,0,0,0,10.66,42.85Z"/><path class="cls-42" d="M16.38,41.75c-1.61,2.73-1.4,6.14-.89,9.5a46.07,46.07,0,0,0,3.15-10C17.69,41.24,16.74,41.2,16.38,41.75Z"/><path class="cls-43" d="M19.75,34.05h-.2c-.51,9-3.29,18.16-8.89,25.18v.57h6.92q1.2-2.41,2.17-5Z"/><path class="cls-44" d="M19.75,54.83q-1,2.55-2.17,5h2.17Z"/><path class="cls-36" d="M10.06,34.89H6.26V57.48h.67C10.39,50.83,10.75,42.42,10.06,34.89Z"/><path class="cls-45" d="M10.66,34.89h-.6c.69,7.53.33,15.94-3.13,22.59h3.73Z"/><path class="cls-46" d="M10,30.59a2.36,2.36,0,0,1-.23-.95.15.15,0,0,0,0-.14.29.29,0,0,0,.09-.2.26.26,0,0,0-.51,0,.29.29,0,0,0,.09.2h0s.15.65-.08.94-2,.26-2.49,1.65A5.67,5.67,0,0,1,8,31.73v0a10,10,0,0,1,1.13-.14v0c.44,0,.9,0,1.36,0v0l1.39.05,0-.24,0,.24c.62,0,1.23.06,1.82.07a2.69,2.69,0,0,1,1.1-.19h.45v-1Z"/><path class="cls-47" d="M6.8,32.09a1.32,1.32,0,0,0-.09.3s.45,1.25,0,1.88-.79.62-.88,1.13-.17.74.26.94a.93.93,0,0,1,.62-1.2A8.7,8.7,0,0,1,8,35V31.73A5.67,5.67,0,0,0,6.8,32.09Z"/><path class="cls-48" d="M8,31.73V35l1.13,0V31.59A10,10,0,0,0,8,31.73Z"/><path class="cls-7" d="M9.12,31.59v3.33l1.36,0V31.56C10,31.56,9.56,31.56,9.12,31.59Z"/><path class="cls-49" d="M11.87,31.61l-1.39-.05v3.33h.18s.4-.15,0-.84a1.38,1.38,0,0,0,1.1-.75l.08-.12A10.34,10.34,0,0,0,11.87,31.61Z"/><path class="cls-50" d="M13.69,31.68c-.59,0-1.2,0-1.82-.07a10.34,10.34,0,0,1,0,1.57A4.12,4.12,0,0,1,13.69,31.68Z"/><rect class="cls-51" x="9.12" y="35.53" width="0.68" height="1.02"/><rect class="cls-51" x="7.46" y="35.53" width="0.76" height="0.98"/><rect class="cls-52" x="8.21" y="35.31" width="0.57" height="7.11"/><rect class="cls-52" x="9.95" y="35.31" width="0.57" height="7.11"/><rect class="cls-52" x="6.87" y="35.53" width="0.57" height="7.11"/><rect class="cls-52" x="8.21" y="41.58" width="1.73" height="13.53"/><rect class="cls-53" x="8.55" y="55.11" width="1.25" height="1.97"/><rect class="cls-54" x="6.26" y="38.86" width="0.55" height="2.42"/><rect class="cls-54" x="6.26" y="43.66" width="0.55" height="2.53"/><rect class="cls-54" x="6.26" y="48.72" width="0.55" height="2.58"/><path class="cls-55" d="M15.24,32.81s-1.55-.21-2.08.93v1.79h2.28V32.89Z"/><rect class="cls-55" x="12.12" y="38.37" width="1.56" height="2"/><rect class="cls-56" x="14.22" y="36.02" width="1.21" height="2.25"/><path class="cls-52" d="M10.88,36.61a.27.27,0,0,0,.06-.17.74.74,0,0,0,0-.14.28.28,0,0,1,.24-.3.84.84,0,0,1,.41.06.62.62,0,0,1-.16.37.76.76,0,0,0-.08.11c-.05.17.23.27.25.45a.59.59,0,0,1,0,.13,2.48,2.48,0,0,0,0,.27l0,1.92a1.22,1.22,0,0,0,.22.86,1.17,1.17,0,0,0,.82.28,13.47,13.47,0,0,0,2.84,0,2.53,2.53,0,0,0,.1,1.16H12.56a5.56,5.56,0,0,0-1.91.22c0-.91,0-1.81.06-2.71,0-.45,0-.9,0-1.35,0-.22,0-.44,0-.66a.79.79,0,0,1,0-.22C10.75,36.78,10.88,36.68,10.88,36.61Z"/><rect class="cls-57" x="11.84" y="40.75" width="0.29" height="0.7"/><rect class="cls-57" x="13.55" y="40.75" width="0.29" height="0.7"/><rect class="cls-57" x="14.12" y="40.75" width="0.29" height="0.7"/><rect class="cls-57" x="14.69" y="40.75" width="0.29" height="0.7"/><rect class="cls-57" x="13.02" y="40.75" width="0.29" height="0.7"/><rect class="cls-57" x="12.47" y="40.75" width="0.29" height="0.7"/><path class="cls-58" d="M12.47,43.89v.18h.69v-.24A2.33,2.33,0,0,1,12.47,43.89Z"/><path class="cls-59" d="M12.52,43.17v.72h.23v-.66A.65.65,0,0,1,12.52,43.17Z"/><path class="cls-58" d="M12.75,43.23v.66l.22,0v-.64A.79.79,0,0,1,12.75,43.23Z"/><path class="cls-60" d="M13.16,43.2l-.19,0v.64a.58.58,0,0,0,.19,0Z"/><path class="cls-58" d="M12.47,43.05v.84h0v-.72a1,1,0,0,0,.64,0v-.15Z"/><path class="cls-57" d="M12.47,45.64h.69V44.07h-.69Z"/><path class="cls-58" d="M12.4,49.27v.19h.69v-.24A2.74,2.74,0,0,1,12.4,49.27Z"/><path class="cls-59" d="M12.45,48.55v.72h.23v-.66A.65.65,0,0,1,12.45,48.55Z"/><path class="cls-58" d="M12.68,48.61v.66l.22,0v-.64Z"/><path class="cls-60" d="M13.09,48.58l-.19,0v.64l.19,0Z"/><path class="cls-58" d="M12.4,48.44v.83h0v-.72a1,1,0,0,0,.64,0v-.14Z"/><path class="cls-57" d="M12.4,51h.69V49.46H12.4Z"/><path class="cls-58" d="M12.13,54.5v.28H13v-.35A2.43,2.43,0,0,1,12.13,54.5Z"/><path class="cls-59" d="M12.19,53.45v1.06a2.61,2.61,0,0,0,.28,0v-1A.58.58,0,0,1,12.19,53.45Z"/><path class="cls-58" d="M12.47,53.54v1l.27,0v-.94A.82.82,0,0,1,12.47,53.54Z"/><path class="cls-60" d="M13,53.49l-.23,0v.94l.23,0Z"/><path class="cls-58" d="M12.13,53.28V54.5h.06V53.45a1,1,0,0,0,.78,0v-.21Z"/><path class="cls-57" d="M12.13,57.08H13v-2.3h-.84Z"/><path class="cls-58" d="M10.62,54.56v.28h.72v-.35A1.8,1.8,0,0,1,10.62,54.56Z"/><path class="cls-59" d="M10.66,53.51v1.06h.24v-1A.72.72,0,0,1,10.66,53.51Z"/><path class="cls-58" d="M10.9,53.6v1l.24,0v-.94A.92.92,0,0,1,10.9,53.6Z"/><path class="cls-60" d="M11.34,53.55l-.2,0v.94l.2,0Z"/><path class="cls-58" d="M10.62,53.34v1.22h0V53.51a.82.82,0,0,0,.68,0v-.21Z"/><path class="cls-57" d="M10.62,57.13h.72V54.84h-.72Z"/><path class="cls-58" d="M10.85,49.15v.19h.57V49.1A1.62,1.62,0,0,1,10.85,49.15Z"/><path class="cls-59" d="M10.89,48.44v.72h.19V48.5A.6.6,0,0,1,10.89,48.44Z"/><path class="cls-58" d="M11.08,48.5v.66l.18,0v-.64A.55.55,0,0,1,11.08,48.5Z"/><path class="cls-60" d="M11.42,48.47l-.16,0v.64l.16,0Z"/><path class="cls-58" d="M10.85,48.32v.83h0v-.72a.75.75,0,0,0,.53,0v-.15Z"/><path class="cls-57" d="M10.85,50.91h.57V49.34h-.57Z"/><path class="cls-58" d="M11,43.89v.18h.5v-.24A1.25,1.25,0,0,1,11,43.89Z"/><path class="cls-59" d="M11,43.17v.72h.16v-.66A.35.35,0,0,1,11,43.17Z"/><path class="cls-58" d="M11.19,43.23v.66l.17,0v-.64A.49.49,0,0,1,11.19,43.23Z"/><path class="cls-60" d="M11.49,43.2l-.13,0v.64a.31.31,0,0,0,.13,0Z"/><path class="cls-58" d="M11,43.05v.84h0v-.72a.54.54,0,0,0,.46,0v-.15Z"/><path class="cls-57" d="M11,45.64h.5V44.07H11Z"/><path class="cls-36" d="M24.15,34.89h-4.4V54.83a81.73,81.73,0,0,0,4.4-19.1Z"/><path class="cls-12" d="M19.75,54.83v2.65h4.4V35.73A81.73,81.73,0,0,1,19.75,54.83Z"/><path class="cls-46" d="M20.43,30.59a2.2,2.2,0,0,0,.23-.95.15.15,0,0,1,0-.14.26.26,0,0,1-.1-.2.26.26,0,0,1,.26-.25.25.25,0,0,1,.25.25.25.25,0,0,1-.09.2h0s-.14.65.08.94,2,.26,2.49,1.65a5.41,5.41,0,0,0-1.18-.36v0a10.44,10.44,0,0,0-1.14-.14v0c-.44,0-.9,0-1.36,0v0l-1.38.05a1.94,1.94,0,0,1,0-.24,1.94,1.94,0,0,0,0,.24c-.62,0-1.24.06-1.83.07a2.66,2.66,0,0,0-1.1-.19h-.45v-1Z"/><path class="cls-47" d="M23.6,32.09a1.32,1.32,0,0,1,.09.3s-.45,1.25,0,1.88.8.62.88,1.13.17.74-.25.94a.94.94,0,0,0-.63-1.2A8.54,8.54,0,0,0,22.42,35V31.73A5.41,5.41,0,0,1,23.6,32.09Z"/><path class="cls-48" d="M22.42,31.73V35l-1.14,0V31.59A10.44,10.44,0,0,1,22.42,31.73Z"/><path class="cls-7" d="M21.28,31.59v3.33l-1.36,0V31.56C20.38,31.56,20.84,31.56,21.28,31.59Z"/><path class="cls-49" d="M18.54,31.61l1.38-.05v3.33h-.17s-.41-.15,0-.84a1.37,1.37,0,0,1-1.1-.75l-.08-.12A8.27,8.27,0,0,1,18.54,31.61Z"/><path class="cls-50" d="M16.71,31.68c.59,0,1.21,0,1.83-.07a8.27,8.27,0,0,0,0,1.57A4.15,4.15,0,0,0,16.71,31.68Z"/><rect class="cls-51" x="20.6" y="35.53" width="0.68" height="1.02" transform="translate(41.89 72.08) rotate(-180)"/><rect class="cls-51" x="22.19" y="35.53" width="0.76" height="0.98" transform="translate(45.14 72.05) rotate(-180)"/><rect class="cls-52" x="21.62" y="35.31" width="0.57" height="7.11" transform="translate(43.82 77.72) rotate(-180)"/><rect class="cls-52" x="19.89" y="35.31" width="0.57" height="7.11" transform="translate(40.35 77.72) rotate(-180)"/><rect class="cls-52" x="22.96" y="35.53" width="0.57" height="7.11" transform="translate(46.49 78.17) rotate(-180)"/><rect class="cls-52" x="20.46" y="41.58" width="1.73" height="13.53" transform="translate(42.65 96.69) rotate(-180)"/><rect class="cls-53" x="20.6" y="55.11" width="1.25" height="1.97" transform="translate(42.46 112.19) rotate(-180)"/><rect class="cls-54" x="23.6" y="38.86" width="0.55" height="2.42" transform="translate(47.75 80.14) rotate(-180)"/><rect class="cls-54" x="23.6" y="43.66" width="0.55" height="2.53" transform="translate(47.75 89.84) rotate(-180)"/><rect class="cls-54" x="23.6" y="48.72" width="0.55" height="2.58" transform="translate(47.75 100.01) rotate(-180)"/><path class="cls-55" d="M15.16,32.81s1.55-.21,2.08.93v1.79H15V32.89Z"/><rect class="cls-55" x="16.71" y="38.37" width="1.56" height="2" transform="translate(34.99 78.74) rotate(-180)"/><rect class="cls-56" x="14.97" y="36.02" width="1.21" height="2.25" transform="translate(31.15 74.3) rotate(-180)"/><path class="cls-52" d="M19.52,36.61a.35.35,0,0,1-.06-.17.74.74,0,0,1,0-.14.28.28,0,0,0-.23-.3.88.88,0,0,0-.42.06.7.7,0,0,0,.17.37s.06.07.07.11-.23.27-.24.45a.3.3,0,0,0,0,.13,1.23,1.23,0,0,1,0,.27l0,1.92a1.21,1.21,0,0,1-.21.86,1.19,1.19,0,0,1-.82.28,13.57,13.57,0,0,1-2.85,0,2.4,2.4,0,0,1-.1,1.16h2.92a5.51,5.51,0,0,1,1.9.22c0-.91-.05-1.81-.06-2.71,0-.45,0-.9,0-1.35v-.66a.79.79,0,0,0,0-.22C19.65,36.78,19.52,36.68,19.52,36.61Z"/><rect class="cls-57" x="18.28" y="40.75" width="0.29" height="0.7" transform="translate(36.85 82.2) rotate(-180)"/><rect class="cls-57" x="16.57" y="40.75" width="0.29" height="0.7" transform="translate(33.43 82.2) rotate(-180)"/><rect class="cls-57" x="15.99" y="40.75" width="0.29" height="0.7" transform="translate(32.27 82.2) rotate(-180)"/><rect class="cls-57" x="15.43" y="40.75" width="0.29" height="0.7" transform="translate(31.15 82.2) rotate(-180)"/><rect class="cls-57" x="17.1" y="40.75" width="0.29" height="0.7" transform="translate(34.48 82.2) rotate(-180)"/><rect class="cls-57" x="17.64" y="40.75" width="0.29" height="0.7" transform="translate(35.57 82.2) rotate(-180)"/><path class="cls-58" d="M17.93,43.89v.18h-.69v-.24A2.36,2.36,0,0,0,17.93,43.89Z"/><path class="cls-59" d="M17.88,43.17v.72h-.22v-.66A.6.6,0,0,0,17.88,43.17Z"/><path class="cls-58" d="M17.66,43.23v.66l-.23,0v-.64A.87.87,0,0,0,17.66,43.23Z"/><path class="cls-60" d="M17.24,43.2l.19,0v.64a.63.63,0,0,1-.19,0Z"/><path class="cls-58" d="M17.93,43.05v.84h-.05v-.72a1,1,0,0,1-.64,0v-.15Z"/><path class="cls-57" d="M17.93,45.64h-.69V44.07h.69Z"/><path class="cls-58" d="M18,49.27v.19h-.69v-.24A2.74,2.74,0,0,0,18,49.27Z"/><path class="cls-59" d="M18,48.55v.72h-.22v-.66A.6.6,0,0,0,18,48.55Z"/><path class="cls-58" d="M17.73,48.61v.66l-.23,0v-.64Z"/><path class="cls-60" d="M17.31,48.58l.19,0v.64l-.19,0Z"/><path class="cls-58" d="M18,48.44v.83H18v-.72a1,1,0,0,1-.64,0v-.14Z"/><path class="cls-57" d="M18,51h-.69V49.46H18Z"/><path class="cls-58" d="M18.27,54.5v.28h-.84v-.35A2.45,2.45,0,0,0,18.27,54.5Z"/><path class="cls-59" d="M18.22,53.45v1.06a2.62,2.62,0,0,1-.28,0v-1A.65.65,0,0,0,18.22,53.45Z"/><path class="cls-58" d="M17.94,53.54v1l-.28,0v-.94A.87.87,0,0,0,17.94,53.54Z"/><path class="cls-60" d="M17.43,53.49l.23,0v.94l-.23,0Z"/><path class="cls-58" d="M18.27,53.28V54.5h-.05V53.45a1,1,0,0,1-.79,0v-.21Z"/><path class="cls-57" d="M18.27,57.08h-.84v-2.3h.84Z"/><path class="cls-58" d="M19.79,54.56v.28h-.73v-.35A1.85,1.85,0,0,0,19.79,54.56Z"/><path class="cls-59" d="M19.74,53.51v1.06H19.5v-1A.59.59,0,0,0,19.74,53.51Z"/><path class="cls-58" d="M19.5,53.6v1l-.24,0v-.94A1,1,0,0,0,19.5,53.6Z"/><path class="cls-60" d="M19.06,53.55l.2,0v.94l-.2,0Z"/><path class="cls-58" d="M19.79,53.34v1.22h-.05V53.51a.82.82,0,0,1-.68,0v-.21Z"/><path class="cls-57" d="M19.79,57.13h-.73V54.84h.73Z"/><path class="cls-58" d="M19.55,49.15v.19H19V49.1A1.62,1.62,0,0,0,19.55,49.15Z"/><path class="cls-59" d="M19.52,48.44v.72h-.19V48.5Z"/><path class="cls-58" d="M19.33,48.5v.66l-.19,0v-.64A.59.59,0,0,0,19.33,48.5Z"/><path class="cls-60" d="M19,48.47l.16,0v.64l-.16,0Z"/><path class="cls-58" d="M19.55,48.32v.83h0v-.72a.78.78,0,0,1-.54,0v-.15Z"/><path class="cls-57" d="M19.55,50.91H19V49.34h.57Z"/><path class="cls-58" d="M19.41,43.89v.18h-.5v-.24A1.25,1.25,0,0,0,19.41,43.89Z"/><path class="cls-59" d="M19.38,43.17v.72h-.17v-.66A.39.39,0,0,0,19.38,43.17Z"/><path class="cls-58" d="M19.21,43.23v.66l-.16,0v-.64A.43.43,0,0,0,19.21,43.23Z"/><path class="cls-60" d="M18.91,43.2l.14,0v.64a.35.35,0,0,1-.14,0Z"/><path class="cls-58" d="M19.41,43.05v.84h0v-.72a.56.56,0,0,1-.47,0v-.15Z"/><path class="cls-57" d="M19.41,45.64h-.5V44.07h.5Z"/><path class="cls-43" d="M18.44,59.8h6.81V57.13h-2C21.69,58.07,20.08,59,18.44,59.8Z"/><path class="cls-14" d="M15.44,57.13H5.15V59.8H18.44c1.64-.83,3.25-1.73,4.83-2.67Z"/><path class="cls-61" d="M16.38,41.8H15.7c0,5.16.52,10.45-.93,15.28h1.61Z"/><path class="cls-62" d="M15.7,41.8H14V57.08h.73C16.22,52.25,15.7,47,15.7,41.8Z"/><path class="cls-63" d="M21,59.14H13.34c-1.48.34-3,.23-4.41.64h11.4C20.14,59.44,20.51,59.26,21,59.14Z"/><path class="cls-64" d="M25.22,59.14H21c-.45.12-.82.3-.63.64h4.89Z"/><path class="cls-65" d="M5,59.14v.64h3.9c1.37-.41,2.93-.3,4.41-.64Z"/><path class="cls-65" d="M8.63,59.87H5L2.82,61.36H6.31a.09.09,0,0,1,0,0C6.6,60.56,7.72,60.16,8.63,59.87Z"/><path class="cls-63" d="M20.4,59.87H8.63c-.91.29-2,.69-2.33,1.44a.09.09,0,0,0,0,0H23.73l-.23-.06A5.79,5.79,0,0,1,20.4,59.87Z"/><path class="cls-64" d="M25.17,59.87H20.4a5.79,5.79,0,0,0,3.1,1.44l.23.06h3.86Z"/><path class="cls-64" d="M26.81,63a.83.83,0,0,0,.7-.31l-1.44-.08A.79.79,0,0,0,26.81,63Z"/><path class="cls-64" d="M23.7,63a.75.75,0,0,0,.77-.47l-1.55-.07C22.93,62.73,23.27,63,23.7,63Z"/><path class="cls-64" d="M25.25,63a.78.78,0,0,0,.75-.4l-1.52-.07A.75.75,0,0,0,25.25,63Z"/><path class="cls-65" d="M6.91,61.64a2.29,2.29,0,0,1-.46-.17H2.65v1c0,.3.35.55.78.55s.78-.25.78-.55c0,.3.35.55.78.55s.78-.25.78-.55c0,.3.35.55.78.55s.78-.25.78-.55c0,.3.35.55.78.55s.78-.25.78-.55c0,.3.35.55.78.55s.78-.25.78-.55c0,.3.34.55.78.55s.77-.25.77-.55c0,.3.35.55.78.55s.78-.25.78-.55c0,.3.35.55.78.55s.78-.25.78-.55c0,.3.35.55.78.55s.78-.25.78-.55c0,.3.35.55.78.55s.78-.25.78-.55c0,.3.35.55.78.55s.78-.25.78-.55c0,.3.35.55.78.55s.78-.25.78-.55c0,.3.35.55.78.55s.76-.24.77-.54c-2.9-.11-5.81-.18-8.75-.29A59.56,59.56,0,0,1,6.91,61.64Z"/><path class="cls-63" d="M6.45,61.47a2.29,2.29,0,0,0,.46.17,59.56,59.56,0,0,0,7.25.5c2.94.11,5.85.18,8.75.29h0l1.55.07v-.08s0,0,0,.08l1.52.07a.4.4,0,0,0,0-.15.47.47,0,0,0,0,.16l1.44.08a.41.41,0,0,0,.08-.24v-.15c-1.15-.25-2.29-.51-3.45-.8Z"/><path class="cls-64" d="M24.14,61.47c1.16.29,2.3.55,3.45.8v-.8Z"/><path class="cls-66" d="M32.31,3.37a1.82,1.82,0,0,1,1.84-1.82,1.85,1.85,0,0,1,1.36.59,2.18,2.18,0,0,1,4.24-.69,2.2,2.2,0,0,1,3.59,1,1.88,1.88,0,0,1,1.48.91Z"/><path class="cls-66" d="M25.07,18.21A3,3,0,0,0,22,15.16a3,3,0,0,0-2.26,1,3.62,3.62,0,0,0-7-1.17,3.61,3.61,0,0,0-6,1.7A3.09,3.09,0,0,0,4.3,18.21Z"/><path class="cls-66" d="M46.74,19.43a.68.68,0,0,0-.67-.57.67.67,0,0,0-.45.18,1.32,1.32,0,0,0-1.28-1,1.4,1.4,0,0,0-.67.18.94.94,0,0,0-1.7.32.77.77,0,0,0-.43-.12.87.87,0,0,0-.82.59l-.15,0a.68.68,0,0,0-.63.43Z"/><path class="cls-66" d="M67.48,16.53a.92.92,0,0,0-.91-.78A.9.9,0,0,0,66,16a1.81,1.81,0,0,0-1.74-1.35,1.79,1.79,0,0,0-.92.25,1.28,1.28,0,0,0-2.32.43,1.16,1.16,0,0,0-.59-.16,1.19,1.19,0,0,0-1.12.8l-.2,0a.9.9,0,0,0-.86.59Z"/><path class="cls-67" d="M9.44,82.56c0-2.22,1.93-3.65,4.05-4.26-1.34,0-2.68.12-4,.23a15.42,15.42,0,0,0-1.81.13A5.81,5.81,0,0,0,6,79.53a2.43,2.43,0,0,0-.63.57,2.82,2.82,0,0,0-.24.47c0,4.67,6.15,4.69,9.71,4.59a16.29,16.29,0,0,1-5-2A.74.74,0,0,1,9.44,82.56Z"/><path class="cls-68" d="M17.65,84.84c1.24-.73,2.59-1.14,3.53-2.28a3.92,3.92,0,0,0,.59-1.44A3,3,0,0,0,20,79.44a15.07,15.07,0,0,0-6-1.14h-.49c-2.12.61-4.05,2-4.05,4.26a.74.74,0,0,0,.32.62,16.29,16.29,0,0,0,5,2h.26A5.56,5.56,0,0,0,17.65,84.84Z"/><path class="cls-69" d="M5.08,80.57a4.59,4.59,0,0,0-.31,1c-.11,1.35.86,2.21,2,2.82a6,6,0,0,0,1.31.47l1.23.31c-.39-.21-.76-.44-1.12-.68C6.41,83.91,5.07,82.75,5.08,80.57Z"/><path class="cls-69" d="M21.8,81.26l0-.14a3.92,3.92,0,0,1-.59,1.44l-.36.38a6.92,6.92,0,0,1-.25.89,3.61,3.61,0,0,0,.92-1A2.15,2.15,0,0,0,21.8,81.26Z"/><path class="cls-70" d="M17.65,84.84a5.56,5.56,0,0,1-2.6.31,20.71,20.71,0,0,1-6.85-.62c.36.24.73.47,1.12.68a16.45,16.45,0,0,0,2.1.36,19.85,19.85,0,0,0,2.56.06A11.77,11.77,0,0,0,20.36,84l.21-.15a6.92,6.92,0,0,0,.25-.89A16,16,0,0,1,17.65,84.84Z"/><path class="cls-71" d="M13.49,80.89A2.64,2.64,0,0,1,12,79.75c-.77-1.64-3.07-4.09-1.38-5.51a25,25,0,0,1-4.95-.72,2.3,2.3,0,0,1-1.42-1v0a5.26,5.26,0,0,0,.53,1.23l1.27,3.24c.46,1.18,1.59,4.47,2,4.8a9,9,0,0,0,5.64,1.49,11.69,11.69,0,0,0,4.05-1.07c.18-.09.84-.55.93-.83l0-.12A12.94,12.94,0,0,1,13.49,80.89Z"/><path class="cls-72" d="M22.33,72.62a7,7,0,0,1-2.92,1,43.4,43.4,0,0,1-8.75.61C9,75.66,11.27,78.11,12,79.75a2.64,2.64,0,0,0,1.45,1.14,12.94,12.94,0,0,0,5.3.44A53.41,53.41,0,0,1,22.21,73,.6.6,0,0,0,22.33,72.62Z"/><path class="cls-73" d="M21.07,72.69c.26-.08.38-.46.35-.82a6.25,6.25,0,0,0-1.11-.36c-3.69-.91-7.55-.62-11.34-.33a15.24,15.24,0,0,0-3.8.62c-.33.11-.88.36-.88.77a2.3,2.3,0,0,0,1.42,1c.52.13,1,.24,1.56.34A30.35,30.35,0,0,0,21.07,72.69Z"/><path class="cls-74" d="M22.32,72.56a.67.67,0,0,0-.14-.19,2.94,2.94,0,0,0-.76-.5c0,.36-.09.74-.35.82a30.35,30.35,0,0,1-13.8,1.17,36.19,36.19,0,0,0,12.14-.23,7,7,0,0,0,2.92-1S22.32,72.58,22.32,72.56Z"/><path class="cls-75" d="M15.05,71.86a.78.78,0,0,0-.07-.44l-.73,0a24,24,0,0,0-4.94.1,8.3,8.3,0,0,0-2.66.86c0,.19.26.27.44.31a27.68,27.68,0,0,0,4.05.51,14.06,14.06,0,0,0,3.6-1A.33.33,0,0,0,15.05,71.86Z"/><path class="cls-76" d="M17,71.61c-.67-.08-1.34-.14-2-.19a.78.78,0,0,1,.07.44.33.33,0,0,1-.31.31,14.06,14.06,0,0,1-3.6,1,46.4,46.4,0,0,0,5.14-.06,7.42,7.42,0,0,0,2.65-.5,1.25,1.25,0,0,0,.71-.62C19.62,72,17.24,71.63,17,71.61Z"/><path class="cls-68" d="M15.56,70.38a.61.61,0,0,1,0-.19c0-.1.11-.17.14-.27a.54.54,0,0,0,0-.25,1.64,1.64,0,0,1,0-1,1.32,1.32,0,0,0,.77.66,4.46,4.46,0,0,0-.18-1.26,2.44,2.44,0,0,0-.64-1.34,1.25,1.25,0,0,1-.23-.23c-.18-.28.06-.64.28-.89a.63.63,0,0,0-.81-.13.54.54,0,0,0-.12.78c.13.15.35.23.4.42a.57.57,0,0,1,0,.29,3,3,0,0,0-.28,1.29c.05.35.25.67.27,1s-.17.79-.15,1.19.42,1,.37,1.53a3,3,0,0,0,0,.42.32.32,0,0,0,.23.31C16.23,72.88,15.61,70.7,15.56,70.38Z"/><path class="cls-68" d="M10.63,70.91a.53.53,0,0,1,0-.37c.08-.15.28-.17.45-.16s.11-.26,0-.35A.27.27,0,0,0,11,70l-.28-.1a.25.25,0,0,0-.19,0c-.08,0-.11.14-.16.22s-.49.25-.54.5.13.35.19.53a1.08,1.08,0,0,1,0,.4,2.26,2.26,0,0,0,.17.93c.18.44.62.35.68-.11A4.27,4.27,0,0,0,10.63,70.91Z"/><path class="cls-77" d="M85.12,75.32l.11,1.31,6.15-.12L91.77,75C89.57,75.11,87.35,75.25,85.12,75.32Z"/><rect class="cls-78" x="74.41" y="73.59" width="0.38" height="11.6"/><path class="cls-77" d="M72.31,74.61l.5,1.77,11.85.19L85,75.33A58.36,58.36,0,0,1,72.31,74.61Z"/><path class="cls-79" d="M74.79,67.31l-.35,0L70.24,69l.74.68a25.66,25.66,0,0,0,3.9.33A12.67,12.67,0,0,0,74.79,67.31Z"/><path class="cls-80" d="M73.75,71a9.24,9.24,0,0,0,3.2-.38c-.54-1.08-.91-2.16-1.44-3.24l-.72-.06a12.67,12.67,0,0,1,.09,2.74,25.66,25.66,0,0,1-3.9-.33h0l-1,1L68.83,71a16.66,16.66,0,0,0-5.31,3.44c-.06.43-.12.88-.12,1s7.46.5,7.46.5l1.21-1.32h0l.17-.19.07.24A58.36,58.36,0,0,0,85,75.33h0A50.47,50.47,0,0,0,73.75,71Z"/><path class="cls-79" d="M68.83,71,58.38,73.06s-.38,1.19-.5,1.38l1.06.25.82-1.19-.25,1.31,3.26.07.88-1.38s-.07.45-.13.91A16.66,16.66,0,0,1,68.83,71Z"/><path class="cls-81" d="M85.12,75.32c2.23-.07,4.45-.21,6.65-.34l.11-.42L80.34,70.67,76,67.41l-.5,0c.53,1.08.9,2.16,1.44,3.24a9.24,9.24,0,0,1-3.2.38A50.47,50.47,0,0,1,85,75.32l.06-.19Z"/><path class="cls-77" d="M80.48,90.56l.11,1.31,6.14-.13.4-1.52C84.92,90.34,82.7,90.48,80.48,90.56Z"/><rect class="cls-78" x="69.77" y="88.82" width="0.38" height="11.6"/><path class="cls-77" d="M67.67,89.84l.5,1.78L80,91.8l.38-1.24A57.74,57.74,0,0,1,67.67,89.84Z"/><path class="cls-79" d="M70.15,82.55l-.35,0-4.21,1.76.75.68a25.64,25.64,0,0,0,3.9.32A13.24,13.24,0,0,0,70.15,82.55Z"/><path class="cls-80" d="M69.11,86.22a9.24,9.24,0,0,0,3.2-.38c-.54-1.08-.91-2.15-1.44-3.23l-.72-.06a13.24,13.24,0,0,1,.09,2.73,25.64,25.64,0,0,1-3.9-.32h0l-1,1-1.15.23a16.72,16.72,0,0,0-5.31,3.44c-.07.44-.12.88-.12,1s7.46.5,7.46.5l1.21-1.31h0l.17-.19.07.23a57.74,57.74,0,0,0,12.73.72h0A51,51,0,0,0,69.11,86.22Z"/><path class="cls-80" d="M64.19,86.2,53.74,88.29s-.38,1.19-.5,1.38l1.06.25.82-1.19-.25,1.32,3.26.06L59,88.73s-.07.45-.13.91A16.72,16.72,0,0,1,64.19,86.2Z"/><path class="cls-81" d="M80.48,90.56c2.22-.08,4.44-.22,6.65-.34l.11-.42L75.69,85.91l-4.32-3.26-.5,0c.53,1.08.9,2.15,1.44,3.23a9.24,9.24,0,0,1-3.2.38A51,51,0,0,1,80.4,90.55l.06-.19Z"/><path class="cls-77" d="M58.56,80.25l.11,1.31,6.15-.13.39-1.52C63,80,60.79,80.17,58.56,80.25Z"/><rect class="cls-78" x="47.85" y="79.02" width="0.38" height="11.6"/><path class="cls-77" d="M45.75,79.53l.5,1.78,11.85.18.38-1.24A57.74,57.74,0,0,1,45.75,79.53Z"/><path class="cls-79" d="M48.23,72.24l-.35,0L43.68,74l.74.68a25.64,25.64,0,0,0,3.9.32A12.58,12.58,0,0,0,48.23,72.24Z"/><path class="cls-80" d="M47.19,75.91a9.24,9.24,0,0,0,3.2-.38c-.54-1.07-.91-2.15-1.44-3.23l-.72-.06A12.58,12.58,0,0,1,48.32,75a25.64,25.64,0,0,1-3.9-.32h0l-1,1-1.15.23A16.83,16.83,0,0,0,37,79.33c-.06.44-.12.88-.12,1s7.46.5,7.46.5l1.21-1.31h0l.17-.19.07.23a57.74,57.74,0,0,0,12.73.72h0A51,51,0,0,0,47.19,75.91Z"/><path class="cls-80" d="M42.27,75.89,31.82,78s-.38,1.19-.5,1.38l1.06.25.82-1.19L33,79.74l3.26.06.88-1.38s-.07.45-.13.91A16.83,16.83,0,0,1,42.27,75.89Z"/><path class="cls-81" d="M58.56,80.25c2.23-.08,4.45-.22,6.65-.34l.11-.42L53.78,75.6l-4.33-3.26-.5,0c.53,1.08.9,2.16,1.44,3.23a9.24,9.24,0,0,1-3.2.38,51,51,0,0,1,11.29,4.33l.06-.19Z"/><path class="cls-82" d="M22.76,96.86h.49l-.08-3.32h-.41Z"/><path class="cls-82" d="M34.65,93.87h.44v3a2.16,2.16,0,0,1-.44,0S34.65,93.87,34.65,93.87Z"/><path class="cls-83" d="M36.13,90.32l-.19,1-.11,1,.11.85.19,2.49h-.3s-.26-2.61-.27-2.69,0-.61,0-.61a3.74,3.74,0,0,1,0-.8s.23-1.17.23-1.17Z"/><path class="cls-83" d="M24.83,90.1l-.19,2.21.48,3.09a1.86,1.86,0,0,1-.39.1S24.37,93,24.37,93L24.3,91.6,24.47,90Z"/><path class="cls-84" d="M24.47,90c.1,0,11.66.3,11.66.3L36,91l-11.56-.3Z"/><polygon class="cls-84" points="24.47 90.83 36.03 91.15 35.95 91.77 24.37 91.4 24.47 90.83"/><path class="cls-84" d="M24.3,91.6v.79s11.62.37,11.63.33,0-.74,0-.74Z"/><path class="cls-84" d="M24.51,92.9l-1.22.15-.53.4v.19l12.4.32.07-.19.38-.07.52-.14v-.24Z"/><path class="cls-82" d="M38.63,96.82h.48L39,93.5h-.41Z"/><path class="cls-82" d="M50.51,93.83H51v3a2.26,2.26,0,0,1-.45,0S50.51,93.83,50.51,93.83Z"/><path class="cls-83" d="M52,90.28l-.2,1-.11.95.11.85.2,2.49h-.31s-.25-2.61-.26-2.69,0-.61,0-.61a4.46,4.46,0,0,1,0-.8,9.75,9.75,0,0,0,.24-1.17Z"/><path class="cls-83" d="M40.7,90.06l-.19,2.21L41,95.36a1.86,1.86,0,0,1-.39.1S40.24,93,40.24,93l-.07-1.41L40.33,90Z"/><path class="cls-84" d="M40.33,90c.1,0,11.67.3,11.67.3l-.1.66-11.57-.3Z"/><polygon class="cls-84" points="40.33 90.79 51.89 91.11 51.82 91.73 40.23 91.36 40.33 90.79"/><path class="cls-84" d="M40.17,91.56v.79s11.62.37,11.63.33,0-.74,0-.74Z"/><path class="cls-84" d="M40.38,92.86,39.15,93l-.52.39v.2l12.4.32.06-.19.38-.07.53-.14v-.24Z"/></g></g></svg>