<svg width="269" height="533" viewBox="0 0 269 533" fill="none" xmlns="http://www.w3.org/2000/svg">
<path opacity="0.5" d="M184.909 7.32333C124.301 21.1611 65.1035 52.8711 29.6646 105.979C-5.77424 159.086 -12.0303 235.722 24.9816 287.642C53.0977 327.1 100.416 346.763 146.884 355.021C213.404 366.822 284.571 358.245 342.666 322.462C400.76 286.68 443.721 221.884 446.867 151.602C449.29 97.1934 421.228 18.0881 367.31 -1.74474C317.822 -19.9752 234.306 -3.93164 184.909 7.32333Z" fill="#6BA432" fill-opacity="0.5"/>
<path opacity="0.5" d="M351.688 283.59C353.853 267.96 355.673 250.709 346.091 235.592C333.611 215.945 307.481 208.241 284.807 204.855C231.223 196.831 176.632 200.641 134.446 223.85C92.2602 247.059 64.2416 291.552 69.9451 341.764C76.7616 402.313 135.675 462.657 200.283 476.357C252.169 487.347 312.663 466.748 332.989 424.64C339.826 410.352 338.357 393.373 339.442 377.221C341.544 345.603 347.355 314.639 351.688 283.59Z" fill="#3A4F30" fill-opacity="0.5"/>
</svg>
